<?xml version="1.0" encoding="utf-8"?>
<!-- Generator: Adobe Illustrator 14.0.0, SVG Export Plug-In . SVG Version: 6.00 Build 43363)  -->
<!DOCTYPE svg PUBLIC "-//W3C//DTD SVG 1.1//EN" "http://www.w3.org/Graphics/SVG/1.1/DTD/svg11.dtd">
<svg version="1.1" id="Layer_1" xmlns="http://www.w3.org/2000/svg" xmlns:xlink="http://www.w3.org/1999/xlink" x="0px" y="0px"
	 width="24px" height="24px" viewBox="0 0 24 24" enable-background="new 0 0 24 24" xml:space="preserve">
<g>
	<g>
		<path fill="#FFFFFF" d="M12,1C5.567,1,0.352,6.215,0.352,12.648S5.567,24.297,12,24.297c6.434,0,11.648-5.215,11.648-11.648
			S18.434,1,12,1z M12.801,21.348v-3.73h-1.537v3.735c-4.212-0.354-7.583-3.707-7.963-7.912h3.787v-1.537h-3.79
			C3.657,7.677,7.036,4.3,11.265,3.946v3.781h1.537V3.951c4.198,0.384,7.543,3.748,7.902,7.953h-3.726v1.537h3.722
			C20.32,17.623,16.983,20.964,12.801,21.348z"/>
	</g>
	<g>
		<g>
			<path fill="#7C0C18" d="M12,0C5.567,0,0.352,5.215,0.352,11.648S5.567,23.297,12,23.297c6.434,0,11.648-5.215,11.648-11.648
				S18.434,0,12,0z M12.801,20.348v-3.73h-1.537v3.735c-4.212-0.354-7.583-3.707-7.963-7.912h3.787v-1.537h-3.79
				C3.657,6.677,7.036,3.3,11.265,2.946v3.781h1.537V2.951c4.198,0.384,7.543,3.748,7.902,7.953h-3.726v1.537h3.722
				C20.32,16.623,16.983,19.964,12.801,20.348z"/>
		</g>
	</g>
</g>
</svg>
