<?xml version="1.0" encoding="utf-8"?>
<!-- Generator: Adobe Illustrator 14.0.0, SVG Export Plug-In . SVG Version: 6.00 Build 43363)  -->
<!DOCTYPE svg PUBLIC "-//W3C//DTD SVG 1.1//EN" "http://www.w3.org/Graphics/SVG/1.1/DTD/svg11.dtd">
<svg version="1.1" id="Layer_1" xmlns="http://www.w3.org/2000/svg" xmlns:xlink="http://www.w3.org/1999/xlink" x="0px" y="0px"
	 width="17.532px" height="30px" viewBox="0 0 17.532 30" enable-background="new 0 0 17.532 30" xml:space="preserve">
<g>
	<g>
		<path d="M8.965,0.315c-0.052,0-0.092-0.003-0.143-0.001C8.778,0.313,8.724,0.316,8.681,0.316c-4.271,0-7.731,3.507-7.731,7.731
			c0,4.225,7.875,20.639,7.875,20.639s7.872-16.429,7.872-20.64C16.696,3.836,13.234,0.315,8.965,0.315z M8.805,10.907
			c-1.956,0-3.542-1.585-3.542-3.54c0-1.956,1.586-3.542,3.542-3.542s3.542,1.586,3.542,3.542
			C12.347,9.322,10.761,10.907,8.805,10.907z"/>
	</g>
	<g>
		<g>
			<path fill="#A5A5A5" d="M8.965,0.815c-0.052,0-0.092-0.003-0.143-0.001C8.778,0.813,8.724,0.816,8.681,0.816
				c-4.271,0-7.731,3.507-7.731,7.731c0,4.225,7.875,20.639,7.875,20.639s7.872-16.429,7.872-20.64
				C16.696,4.336,13.234,0.815,8.965,0.815z M8.805,11.407c-1.956,0-3.542-1.585-3.542-3.54c0-1.956,1.586-3.542,3.542-3.542
				s3.542,1.586,3.542,3.542C12.347,9.822,10.761,11.407,8.805,11.407z"/>
		</g>
	</g>
</g>
</svg>
