<?xml version="1.0" encoding="utf-8"?>
<!-- Generator: Adobe Illustrator 14.0.0, SVG Export Plug-In . SVG Version: 6.00 Build 43363)  -->
<!DOCTYPE svg PUBLIC "-//W3C//DTD SVG 1.1//EN" "http://www.w3.org/Graphics/SVG/1.1/DTD/svg11.dtd">
<svg version="1.1" id="Layer_1" xmlns="http://www.w3.org/2000/svg" xmlns:xlink="http://www.w3.org/1999/xlink" x="0px" y="0px"
	 width="50px" height="30px" viewBox="0 0 50 30" enable-background="new 0 0 50 30" xml:space="preserve">
<g>
	<g>
		<path fill="#FFFFFF" d="M25.014,0.213c-11.933,0-22.868,12.029-22.868,12.029c-1.276,1.406-1.276,3.705,0,5.11
			c0,0,10.852,11.949,22.868,11.949c12.014,0,22.719-11.935,22.719-11.935c1.269-1.411,1.267-3.727,0-5.14
			C47.732,12.228,36.944,0.213,25.014,0.213z M25.054,24.077c-5.149,0-9.321-4.177-9.321-9.322c0-5.147,4.172-9.321,9.321-9.321
			c5.151,0,9.322,4.174,9.322,9.321C34.376,19.9,30.206,24.077,25.054,24.077z M24.973,10.734c-2.222,0-4.021,1.799-4.021,4.02
			c0,2.216,1.797,4.017,4.021,4.017c2.219,0,4.019-1.801,4.019-4.017C28.994,12.533,27.192,10.734,24.973,10.734z"/>
		<path fill="#FFFFFF" d="M25.014,0.213c-11.933,0-22.868,12.029-22.868,12.029c-1.276,1.406-1.276,3.705,0,5.11
			c0,0,10.852,11.949,22.868,11.949c12.014,0,22.719-11.935,22.719-11.935c1.269-1.411,1.267-3.727,0-5.14
			C47.732,12.228,36.944,0.213,25.014,0.213z M25.054,24.077c-5.149,0-9.321-4.177-9.321-9.322c0-5.147,4.172-9.321,9.321-9.321
			c5.151,0,9.322,4.174,9.322,9.321C34.376,19.9,30.206,24.077,25.054,24.077z M24.973,10.734c-2.222,0-4.021,1.799-4.021,4.02
			c0,2.216,1.797,4.017,4.021,4.017c2.219,0,4.019-1.801,4.019-4.017C28.994,12.533,27.192,10.734,24.973,10.734z"/>
	</g>
	<g>
		<g>
			<g>
				<path fill="#333333" d="M25.014,0.703C13.081,0.703,2.146,12.73,2.146,12.73c-1.276,1.404-1.276,3.703,0,5.107
					c0,0,10.852,11.949,22.868,11.949c12.014,0,22.719-11.934,22.719-11.934c1.269-1.415,1.267-3.727,0-5.14
					C47.732,12.717,36.944,0.703,25.014,0.703z M25.054,24.565c-5.149,0-9.321-4.177-9.321-9.322c0-5.146,4.172-9.321,9.321-9.321
					c5.151,0,9.322,4.175,9.322,9.321C34.376,20.389,30.206,24.565,25.054,24.565z M24.973,11.224c-2.222,0-4.021,1.8-4.021,4.02
					c0,2.218,1.797,4.021,4.021,4.021c2.219,0,4.019-1.803,4.019-4.021C28.994,13.024,27.192,11.224,24.973,11.224z"/>
				<path fill="#333333" d="M25.014,0.703C13.081,0.703,2.146,12.73,2.146,12.73c-1.276,1.404-1.276,3.703,0,5.107
					c0,0,10.852,11.949,22.868,11.949c12.014,0,22.719-11.934,22.719-11.934c1.269-1.415,1.267-3.727,0-5.14
					C47.732,12.717,36.944,0.703,25.014,0.703z M25.054,24.565c-5.149,0-9.321-4.177-9.321-9.322c0-5.146,4.172-9.321,9.321-9.321
					c5.151,0,9.322,4.175,9.322,9.321C34.376,20.389,30.206,24.565,25.054,24.565z M24.973,11.224c-2.222,0-4.021,1.8-4.021,4.02
					c0,2.218,1.797,4.021,4.021,4.021c2.219,0,4.019-1.803,4.019-4.021C28.994,13.024,27.192,11.224,24.973,11.224z"/>
			</g>
		</g>
	</g>
</g>
</svg>
