<?xml version="1.0" encoding="utf-8"?>
<!-- Generator: Adobe Illustrator 14.0.0, SVG Export Plug-In . SVG Version: 6.00 Build 43363)  -->
<!DOCTYPE svg PUBLIC "-//W3C//DTD SVG 1.1//EN" "http://www.w3.org/Graphics/SVG/1.1/DTD/svg11.dtd">
<svg version="1.1" id="Layer_1" xmlns="http://www.w3.org/2000/svg" xmlns:xlink="http://www.w3.org/1999/xlink" x="0px" y="0px"
	 width="49.288px" height="30px" viewBox="-16.168 0 49.288 30" enable-background="new -16.168 0 49.288 30" xml:space="preserve">
<g>
	<g>
		<path fill-rule="evenodd" clip-rule="evenodd" d="M-4.952,21.788c0.847-0.365,3.177-1.443,5.217-2.136
			c0.792-0.269,1.382-0.476,1.83-0.646c-0.35-0.137-0.624-0.244-0.761-0.301c-0.671-0.274-1.183-0.718-1.435-0.991
			c-0.252-0.275-0.413-0.413-0.474-0.565c-0.061-0.153,0.046-0.198-0.03-0.26c-0.077-0.061-0.351,0.046-0.443-0.061
			c-0.091-0.107-0.107-0.382-0.091-0.626c0.213-0.138,0.549-0.336,0.656-1.022c0.107-0.688,0.183-1.466,0.183-1.466
			s0.549,0.153,0.732-0.549s0.336-1.816,0.366-2.167c0.031-0.352,0.061-0.504-0.167-0.565c0.045-0.595,0.199-1.694,0.183-2.686
			s0-1.236-0.138-1.573C0.542,5.837-0.146,4.632-0.344,4.418c-0.198-0.213-0.305-0.305-0.84-0.61
			C-1.718,3.502-3.031,3.182-3.336,3.09C-3.642,2.999-3.84,2.892-4.343,2.907c-0.504,0.015-1.252,0.198-1.786,0.504
			c-0.535,0.305-0.749,0.473-0.764,0.793h-0.687c-0.184,0-0.382,0.274-0.595,0.87c-0.214,0.595-0.565,1.267-0.581,1.74
			C-8.77,7.288-8.526,8.219-8.495,8.83c0.03,0.61,0.091,0.931,0.184,1.16c0.091,0.229,0.076,0.335-0.016,0.351
			c-0.091,0.016-0.274-0.016-0.244,0.443c0.031,0.458,0.321,2.198,0.412,2.442c0.092,0.244,0.275,0.473,0.488,0.458
			c0.214-0.015,0.199,0.061,0.275,0.367c0.076,0.305,0.153,0.794,0.183,1.19c0.031,0.396,0.396,0.824,0.671,0.916
			c0.046,0.229,0.061,0.503,0.061,0.503s-0.305,0.107-0.458,0.107c-0.153,0-0.305,0.062-0.443,0.351
			c-0.137,0.29-0.291,0.825-0.519,1.054s-0.809,0.458-2.427,1.008c-1.618,0.55-3.464,1.404-4.137,1.694
			c-0.671,0.29-0.946,0.824-1.068,1.037c-0.122,0.214-0.168,0.26-0.168,0.443c0,0.183-0.121,3.099-0.121,3.099h9.244
			c0.035-0.865,0.067-1.69,0.067-1.796c0-0.231,0.058-0.289,0.211-0.559C-6.145,22.828-5.799,22.154-4.952,21.788z M32.711,22.46
			c-0.062-0.824-0.307-1.1-1.189-1.557c-0.887-0.458-4.732-1.923-5.404-2.198c-0.672-0.274-1.184-0.718-1.436-0.991
			c-0.252-0.275-0.412-0.413-0.473-0.565c-0.061-0.153,0.047-0.198-0.031-0.26c-0.076-0.061-0.35,0.046-0.441-0.061
			c-0.094-0.107-0.107-0.382-0.094-0.626c0.215-0.138,0.551-0.336,0.658-1.022c0.105-0.688,0.182-1.466,0.182-1.466
			s0.551,0.153,0.734-0.549s0.334-1.816,0.365-2.167c0.031-0.352,0.062-0.504-0.168-0.565c0.047-0.595,0.199-1.694,0.184-2.686
			s0-1.236-0.137-1.573c-0.139-0.336-0.824-1.542-1.023-1.755c-0.199-0.213-0.305-0.305-0.84-0.61
			c-0.533-0.306-1.846-0.626-2.152-0.718c-0.305-0.091-0.504-0.199-1.008-0.183c-0.502,0.015-1.252,0.198-1.785,0.504
			c-0.535,0.305-0.748,0.473-0.762,0.793h-0.689c-0.182,0-0.381,0.274-0.594,0.87c-0.213,0.595-0.564,1.267-0.58,1.74
			c-0.016,0.473,0.229,1.404,0.26,2.015c0.031,0.61,0.092,0.931,0.182,1.16c0.094,0.229,0.078,0.335-0.014,0.351
			s-0.275-0.016-0.244,0.443c0.029,0.458,0.32,2.198,0.412,2.442c0.09,0.244,0.273,0.473,0.488,0.458
			c0.213-0.015,0.197,0.061,0.273,0.367c0.078,0.305,0.154,0.794,0.184,1.19c0.031,0.396,0.396,0.824,0.672,0.916
			c0.045,0.229,0.061,0.503,0.061,0.503s-0.305,0.107-0.457,0.107s-0.305,0.062-0.441,0.351c-0.139,0.29-0.291,0.825-0.52,1.054
			c-0.207,0.205-0.703,0.414-1.975,0.853c0.021,0.01,0.041,0.022,0.064,0.032c0.846,0.346,5.697,2.194,6.814,2.771
			c1.115,0.578,1.424,0.924,1.5,1.964c0.029,0.392,0.047,1.024,0.059,1.661h9.426C32.772,25.452,32.772,23.284,32.711,22.46z
			 M21.143,22.255c-1.062-0.551-5.682-2.31-6.488-2.64s-1.42-0.861-1.723-1.19c-0.303-0.33-0.494-0.495-0.566-0.679
			c-0.074-0.183,0.055-0.238-0.039-0.312c-0.09-0.073-0.42,0.055-0.531-0.073c-0.109-0.129-0.127-0.458-0.109-0.752
			c0.258-0.165,0.66-0.403,0.789-1.228c0.127-0.824,0.219-1.759,0.219-1.759s0.66,0.183,0.879-0.66
			c0.221-0.843,0.404-2.182,0.441-2.603c0.035-0.421,0.072-0.605-0.203-0.678c0.057-0.714,0.238-2.034,0.221-3.225
			c-0.018-1.191,0-1.485-0.164-1.888c-0.166-0.403-0.99-1.851-1.229-2.107c-0.238-0.256-0.367-0.366-1.008-0.733
			c-0.643-0.366-2.218-0.751-2.585-0.861c-0.367-0.11-0.605-0.238-1.209-0.22C7.232,0.666,6.334,0.887,5.693,1.253
			C5.052,1.619,4.795,1.821,4.776,2.206H3.952c-0.22,0-0.458,0.329-0.714,1.044C2.981,3.965,2.56,4.772,2.541,5.34
			C2.522,5.908,2.816,7.025,2.853,7.759c0.036,0.733,0.11,1.118,0.219,1.393c0.11,0.274,0.092,0.403-0.018,0.421
			c-0.11,0.019-0.33-0.018-0.293,0.532c0.037,0.55,0.385,2.639,0.495,2.933c0.109,0.293,0.33,0.568,0.586,0.549
			c0.257-0.018,0.238,0.074,0.33,0.441c0.092,0.366,0.183,0.953,0.22,1.429c0.037,0.477,0.477,0.989,0.806,1.1
			c0.055,0.275,0.074,0.605,0.074,0.605s-0.366,0.128-0.55,0.128c-0.183,0-0.366,0.073-0.531,0.421
			c-0.165,0.349-0.348,0.99-0.623,1.265c-0.275,0.275-0.972,0.55-2.915,1.21c-1.942,0.66-4.16,1.687-4.966,2.034
			c-0.807,0.348-1.136,0.989-1.283,1.246c-0.146,0.257-0.201,0.312-0.201,0.531s-0.147,3.721-0.147,3.721h28.589
			c0,0,0-2.603-0.072-3.593C22.499,23.134,22.206,22.805,21.143,22.255z"/>
	</g>
	<g>
		<g>
			<path fill-rule="evenodd" clip-rule="evenodd" fill="#A5A5A5" d="M-4.952,22.288c0.847-0.365,3.177-1.443,5.217-2.136
				c0.792-0.269,1.382-0.476,1.83-0.646c-0.35-0.137-0.624-0.244-0.761-0.301c-0.671-0.274-1.183-0.718-1.435-0.991
				c-0.252-0.275-0.413-0.413-0.474-0.565c-0.061-0.153,0.046-0.198-0.03-0.26c-0.077-0.061-0.351,0.046-0.443-0.061
				c-0.091-0.107-0.107-0.382-0.091-0.626c0.213-0.138,0.549-0.336,0.656-1.022c0.107-0.688,0.183-1.466,0.183-1.466
				s0.549,0.153,0.732-0.549s0.336-1.816,0.366-2.167c0.031-0.352,0.061-0.504-0.167-0.565c0.045-0.595,0.199-1.694,0.183-2.686
				s0-1.236-0.138-1.573C0.542,6.337-0.146,5.132-0.344,4.918c-0.198-0.213-0.305-0.305-0.84-0.61
				C-1.718,4.002-3.031,3.682-3.336,3.59C-3.642,3.499-3.84,3.392-4.343,3.407c-0.504,0.015-1.252,0.198-1.786,0.504
				c-0.535,0.305-0.749,0.473-0.764,0.793h-0.687c-0.184,0-0.382,0.274-0.595,0.87c-0.214,0.595-0.565,1.267-0.581,1.74
				C-8.77,7.788-8.526,8.719-8.495,9.33c0.03,0.61,0.091,0.931,0.184,1.16c0.091,0.229,0.076,0.335-0.016,0.351
				c-0.091,0.016-0.274-0.016-0.244,0.443c0.031,0.458,0.321,2.198,0.412,2.442c0.092,0.244,0.275,0.473,0.488,0.458
				c0.214-0.015,0.199,0.061,0.275,0.367c0.076,0.305,0.153,0.794,0.183,1.19c0.031,0.396,0.396,0.824,0.671,0.916
				c0.046,0.229,0.061,0.503,0.061,0.503s-0.305,0.107-0.458,0.107c-0.153,0-0.305,0.062-0.443,0.351
				c-0.137,0.29-0.291,0.825-0.519,1.054s-0.809,0.458-2.427,1.008c-1.618,0.55-3.464,1.404-4.137,1.694
				c-0.671,0.29-0.946,0.824-1.068,1.037c-0.122,0.214-0.168,0.26-0.168,0.443c0,0.183-0.121,3.099-0.121,3.099h9.244
				c0.035-0.865,0.067-1.69,0.067-1.796c0-0.231,0.058-0.289,0.211-0.559C-6.145,23.328-5.799,22.654-4.952,22.288z M32.711,22.96
				c-0.062-0.824-0.307-1.1-1.189-1.557c-0.887-0.458-4.732-1.923-5.404-2.198c-0.672-0.274-1.184-0.718-1.436-0.991
				c-0.252-0.275-0.412-0.413-0.473-0.565c-0.061-0.153,0.047-0.198-0.031-0.26c-0.076-0.061-0.35,0.046-0.441-0.061
				c-0.094-0.107-0.107-0.382-0.094-0.626c0.215-0.138,0.551-0.336,0.658-1.022c0.105-0.688,0.182-1.466,0.182-1.466
				s0.551,0.153,0.734-0.549s0.334-1.816,0.365-2.167c0.031-0.352,0.062-0.504-0.168-0.565c0.047-0.595,0.199-1.694,0.184-2.686
				s0-1.236-0.137-1.573c-0.139-0.336-0.824-1.542-1.023-1.755c-0.199-0.213-0.305-0.305-0.84-0.61
				c-0.533-0.306-1.846-0.626-2.152-0.718c-0.305-0.091-0.504-0.199-1.008-0.183c-0.502,0.015-1.252,0.198-1.785,0.504
				c-0.535,0.305-0.748,0.473-0.762,0.793h-0.689c-0.182,0-0.381,0.274-0.594,0.87c-0.213,0.595-0.564,1.267-0.58,1.74
				c-0.016,0.473,0.229,1.404,0.26,2.015c0.031,0.61,0.092,0.931,0.182,1.16c0.094,0.229,0.078,0.335-0.014,0.351
				s-0.275-0.016-0.244,0.443c0.029,0.458,0.32,2.198,0.412,2.442c0.09,0.244,0.273,0.473,0.488,0.458
				c0.213-0.015,0.197,0.061,0.273,0.367c0.078,0.305,0.154,0.794,0.184,1.19c0.031,0.396,0.396,0.824,0.672,0.916
				c0.045,0.229,0.061,0.503,0.061,0.503s-0.305,0.107-0.457,0.107s-0.305,0.062-0.441,0.351c-0.139,0.29-0.291,0.825-0.52,1.054
				c-0.207,0.205-0.703,0.414-1.975,0.853c0.021,0.01,0.041,0.022,0.064,0.032c0.846,0.346,5.697,2.194,6.814,2.771
				c1.115,0.578,1.424,0.924,1.5,1.964c0.029,0.392,0.047,1.024,0.059,1.661h9.426C32.772,25.952,32.772,23.784,32.711,22.96z
				 M21.143,22.755c-1.062-0.551-5.682-2.31-6.488-2.64s-1.42-0.861-1.723-1.19c-0.303-0.33-0.494-0.495-0.566-0.679
				c-0.074-0.183,0.055-0.238-0.039-0.312c-0.09-0.073-0.42,0.055-0.531-0.073c-0.109-0.129-0.127-0.458-0.109-0.752
				c0.258-0.165,0.66-0.403,0.789-1.228c0.127-0.824,0.219-1.759,0.219-1.759s0.66,0.183,0.879-0.66
				c0.221-0.843,0.404-2.182,0.441-2.603c0.035-0.421,0.072-0.605-0.203-0.678c0.057-0.714,0.238-2.034,0.221-3.225
				c-0.018-1.191,0-1.485-0.164-1.888c-0.166-0.403-0.99-1.851-1.229-2.107c-0.238-0.256-0.367-0.366-1.008-0.733
				c-0.643-0.366-2.218-0.751-2.585-0.861c-0.367-0.11-0.605-0.238-1.209-0.22C7.232,1.166,6.334,1.387,5.693,1.753
				C5.052,2.119,4.795,2.321,4.776,2.706H3.952c-0.22,0-0.458,0.329-0.714,1.044C2.981,4.465,2.56,5.272,2.541,5.84
				C2.522,6.408,2.816,7.525,2.853,8.259c0.036,0.733,0.11,1.118,0.219,1.393c0.11,0.274,0.092,0.403-0.018,0.421
				c-0.11,0.019-0.33-0.018-0.293,0.532c0.037,0.55,0.385,2.639,0.495,2.933c0.109,0.293,0.33,0.568,0.586,0.549
				c0.257-0.018,0.238,0.074,0.33,0.441c0.092,0.366,0.183,0.953,0.22,1.429c0.037,0.477,0.477,0.989,0.806,1.1
				c0.055,0.275,0.074,0.605,0.074,0.605s-0.366,0.128-0.55,0.128c-0.183,0-0.366,0.073-0.531,0.421
				c-0.165,0.349-0.348,0.99-0.623,1.265c-0.275,0.275-0.972,0.55-2.915,1.21c-1.942,0.66-4.16,1.687-4.966,2.034
				c-0.807,0.348-1.136,0.989-1.283,1.246c-0.146,0.257-0.201,0.312-0.201,0.531s-0.147,3.721-0.147,3.721h28.589
				c0,0,0-2.603-0.072-3.593C22.499,23.634,22.206,23.305,21.143,22.755z"/>
		</g>
	</g>
</g>
</svg>
