<?xml version="1.0" encoding="utf-8"?>
<!-- Generator: Adobe Illustrator 14.0.0, SVG Export Plug-In . SVG Version: 6.00 Build 43363)  -->
<!DOCTYPE svg PUBLIC "-//W3C//DTD SVG 1.1//EN" "http://www.w3.org/Graphics/SVG/1.1/DTD/svg11.dtd">
<svg version="1.1" id="Layer_1" xmlns="http://www.w3.org/2000/svg" xmlns:xlink="http://www.w3.org/1999/xlink" x="0px" y="0px"
	 width="42.296px" height="24.498px" viewBox="0 0 42.296 24.498" enable-background="new 0 0 42.296 24.498" xml:space="preserve">
<g>
	<g>
		<path fill-rule="evenodd" clip-rule="evenodd" fill="#FFFFFF" d="M21.218-0.283c-10.051,0-19.873,10.804-19.873,10.804
			c-0.74,0.813-0.74,2.146,0,2.96c0,0,9.752,10.733,19.873,10.733c10.12,0,19.743-10.725,19.743-10.725
			c0.734-0.819,0.734-2.159,0-2.978C40.96,10.512,31.269-0.283,21.218-0.283z M21.253,19.816c-4.337,0-7.852-3.516-7.852-7.852
			s3.515-7.852,7.852-7.852c4.336,0,7.851,3.516,7.851,7.852S25.589,19.816,21.253,19.816z M21.183,8.58
			c-1.869,0-3.385,1.516-3.385,3.385s1.516,3.386,3.385,3.386s3.385-1.517,3.385-3.386S23.052,8.58,21.183,8.58z"/>
		<path fill-rule="evenodd" clip-rule="evenodd" fill="#FFFFFF" d="M21.218-0.283c-10.051,0-19.873,10.804-19.873,10.804
			c-0.74,0.813-0.74,2.146,0,2.96c0,0,9.752,10.733,19.873,10.733c10.12,0,19.743-10.725,19.743-10.725
			c0.734-0.819,0.734-2.159,0-2.978C40.96,10.512,31.269-0.283,21.218-0.283z M21.253,19.816c-4.337,0-7.852-3.516-7.852-7.852
			s3.515-7.852,7.852-7.852c4.336,0,7.851,3.516,7.851,7.852S25.589,19.816,21.253,19.816z M21.183,8.58
			c-1.869,0-3.385,1.516-3.385,3.385s1.516,3.386,3.385,3.386s3.385-1.517,3.385-3.386S23.052,8.58,21.183,8.58z"/>
	</g>
	<g>
		<g>
			<g>
				<path fill-rule="evenodd" clip-rule="evenodd" fill="#333333" d="M21.218,0C11.167,0,1.345,10.804,1.345,10.804
					c-0.74,0.814-0.74,2.146,0,2.96c0,0,9.752,10.733,19.873,10.733c10.12,0,19.743-10.725,19.743-10.725
					c0.734-0.819,0.734-2.159,0-2.977C40.96,10.795,31.269,0,21.218,0z M21.253,20.1c-4.337,0-7.852-3.516-7.852-7.852
					s3.515-7.852,7.852-7.852c4.336,0,7.851,3.516,7.851,7.852S25.589,20.1,21.253,20.1z M21.183,8.864
					c-1.869,0-3.385,1.516-3.385,3.385s1.516,3.385,3.385,3.385s3.385-1.516,3.385-3.385S23.052,8.864,21.183,8.864z"/>
				<path fill-rule="evenodd" clip-rule="evenodd" fill="#333333" d="M21.218,0C11.167,0,1.345,10.804,1.345,10.804
					c-0.74,0.814-0.74,2.146,0,2.96c0,0,9.752,10.733,19.873,10.733c10.12,0,19.743-10.725,19.743-10.725
					c0.734-0.819,0.734-2.159,0-2.977C40.96,10.795,31.269,0,21.218,0z M21.253,20.1c-4.337,0-7.852-3.516-7.852-7.852
					s3.515-7.852,7.852-7.852c4.336,0,7.851,3.516,7.851,7.852S25.589,20.1,21.253,20.1z M21.183,8.864
					c-1.869,0-3.385,1.516-3.385,3.385s1.516,3.385,3.385,3.385s3.385-1.516,3.385-3.385S23.052,8.864,21.183,8.864z"/>
			</g>
		</g>
	</g>
</g>
</svg>
