<?xml version="1.0" encoding="utf-8"?>
<!-- Generator: Adobe Illustrator 14.0.0, SVG Export Plug-In . SVG Version: 6.00 Build 43363)  -->
<!DOCTYPE svg PUBLIC "-//W3C//DTD SVG 1.1//EN" "http://www.w3.org/Graphics/SVG/1.1/DTD/svg11.dtd">
<svg version="1.1" id="Layer_1" xmlns="http://www.w3.org/2000/svg" xmlns:xlink="http://www.w3.org/1999/xlink" x="0px" y="0px"
	 width="30px" height="30px" viewBox="0 0 30 30" enable-background="new 0 0 30 30" xml:space="preserve">
<g>
	<g opacity="0.4">
		<path d="M19.563,9.436c0-2.796-2.269-5.063-5.064-5.063c-2.795,0-5.063,2.268-5.063,5.063c0,2.451,1.74,4.493,4.051,4.961v10.228
			l2.024,0.002l0.001-10.229C17.822,13.929,19.563,11.887,19.563,9.436z M11.46,7.917c0-0.837,0.681-1.519,1.519-1.519
			c0.839,0,1.519,0.682,1.519,1.519c0,0.839-0.68,1.52-1.519,1.52C12.141,9.436,11.46,8.755,11.46,7.917z"/>
		<ellipse cx="14.498" cy="23.613" rx="3.038" ry="1.014"/>
	</g>
	<g>
		<g>
			<path fill="#7E782E" d="M19.563,9.936c0-2.796-2.269-5.063-5.064-5.063c-2.795,0-5.063,2.268-5.063,5.063
				c0,2.451,1.74,4.493,4.051,4.961v10.228l2.024,0.002l0.001-10.229C17.822,14.429,19.563,12.387,19.563,9.936z M11.46,8.417
				c0-0.837,0.681-1.519,1.519-1.519c0.839,0,1.519,0.682,1.519,1.519c0,0.839-0.68,1.52-1.519,1.52
				C12.141,9.936,11.46,9.255,11.46,8.417z"/>
			<ellipse fill="#7E782E" cx="14.498" cy="24.113" rx="3.038" ry="1.014"/>
		</g>
	</g>
</g>
</svg>
