<?xml version="1.0" encoding="utf-8"?>
<!-- Generator: Adobe Illustrator 14.0.0, SVG Export Plug-In . SVG Version: 6.00 Build 43363)  -->
<!DOCTYPE svg PUBLIC "-//W3C//DTD SVG 1.1//EN" "http://www.w3.org/Graphics/SVG/1.1/DTD/svg11.dtd">
<svg version="1.1" id="Layer_1" xmlns="http://www.w3.org/2000/svg" xmlns:xlink="http://www.w3.org/1999/xlink" x="0px" y="0px"
	 width="30px" height="30px" viewBox="0 0 30 30" enable-background="new 0 0 30 30" xml:space="preserve">
<g>
	<g>
		<path fill-rule="evenodd" clip-rule="evenodd" fill="#FFFFFF" d="M15.048,0.499c-6.912,0-13.246,6.967-13.246,6.967
			c-0.74,0.814-0.74,2.146,0,2.961c0,0,6.286,6.919,13.246,6.919c6.959,0,13.158-6.912,13.158-6.912
			c0.735-0.818,0.734-2.158,0-2.977C28.206,7.458,21.959,0.499,15.048,0.499z M15.071,14.321c-2.982,0-5.399-2.418-5.399-5.399
			s2.417-5.399,5.399-5.399c2.982,0,5.398,2.418,5.398,5.399S18.054,14.321,15.071,14.321z M15.023,6.593
			c-1.285,0-2.328,1.043-2.328,2.328c0,1.284,1.042,2.328,2.328,2.328s2.328-1.044,2.328-2.328
			C17.352,7.636,16.309,6.593,15.023,6.593z"/>
		<path fill-rule="evenodd" clip-rule="evenodd" fill="#FFFFFF" d="M15.048,0.499c-6.912,0-13.246,6.967-13.246,6.967
			c-0.74,0.814-0.74,2.146,0,2.961c0,0,6.286,6.919,13.246,6.919c6.959,0,13.158-6.912,13.158-6.912
			c0.735-0.818,0.734-2.158,0-2.977C28.206,7.458,21.959,0.499,15.048,0.499z M15.071,14.321c-2.982,0-5.399-2.418-5.399-5.399
			s2.417-5.399,5.399-5.399c2.982,0,5.398,2.418,5.398,5.399S18.054,14.321,15.071,14.321z M15.023,6.593
			c-1.285,0-2.328,1.043-2.328,2.328c0,1.284,1.042,2.328,2.328,2.328s2.328-1.044,2.328-2.328
			C17.352,7.636,16.309,6.593,15.023,6.593z"/>
	</g>
	<g>
		<g>
			<g>
				<path fill-rule="evenodd" clip-rule="evenodd" fill="#333333" d="M15.048,0.782c-6.912,0-13.246,6.967-13.246,6.967
					c-0.74,0.814-0.74,2.146,0,2.96c0,0,6.286,6.919,13.246,6.919c6.959,0,13.158-6.912,13.158-6.912
					c0.735-0.818,0.734-2.158,0-2.977C28.206,7.741,21.959,0.782,15.048,0.782z M15.071,14.604c-2.982,0-5.399-2.418-5.399-5.399
					s2.417-5.399,5.399-5.399c2.982,0,5.398,2.418,5.398,5.399S18.054,14.604,15.071,14.604z M15.023,6.877
					c-1.285,0-2.328,1.042-2.328,2.328c0,1.284,1.042,2.328,2.328,2.328s2.328-1.044,2.328-2.328
					C17.352,7.919,16.309,6.877,15.023,6.877z"/>
				<path fill-rule="evenodd" clip-rule="evenodd" fill="#333333" d="M15.048,0.782c-6.912,0-13.246,6.967-13.246,6.967
					c-0.74,0.814-0.74,2.146,0,2.96c0,0,6.286,6.919,13.246,6.919c6.959,0,13.158-6.912,13.158-6.912
					c0.735-0.818,0.734-2.158,0-2.977C28.206,7.741,21.959,0.782,15.048,0.782z M15.071,14.604c-2.982,0-5.399-2.418-5.399-5.399
					s2.417-5.399,5.399-5.399c2.982,0,5.398,2.418,5.398,5.399S18.054,14.604,15.071,14.604z M15.023,6.877
					c-1.285,0-2.328,1.042-2.328,2.328c0,1.284,1.042,2.328,2.328,2.328s2.328-1.044,2.328-2.328
					C17.352,7.919,16.309,6.877,15.023,6.877z"/>
			</g>
		</g>
	</g>
</g>
</svg>
