<?xml version="1.0" encoding="utf-8"?>
<!-- Generator: Adobe Illustrator 14.0.0, SVG Export Plug-In . SVG Version: 6.00 Build 43363)  -->
<!DOCTYPE svg PUBLIC "-//W3C//DTD SVG 1.1//EN" "http://www.w3.org/Graphics/SVG/1.1/DTD/svg11.dtd">
<svg version="1.1" id="Layer_1" xmlns="http://www.w3.org/2000/svg" xmlns:xlink="http://www.w3.org/1999/xlink" x="0px" y="0px"
	 width="259.157px" height="33.396px" viewBox="0 0 259.157 33.396" enable-background="new 0 0 259.157 33.396"
	 xml:space="preserve">
<g>
	<g>
		<path d="M8.965,2.033c-0.052,0-0.092-0.003-0.144-0.001c-0.043-0.001-0.097,0.002-0.14,0.002c-4.271,0-7.73,3.507-7.73,7.731
			s7.875,20.639,7.875,20.639s7.871-16.429,7.871-20.64C16.696,5.554,13.234,2.033,8.965,2.033z M8.805,12.625
			c-1.956,0-3.542-1.585-3.542-3.54c0-1.956,1.586-3.542,3.542-3.542s3.542,1.586,3.542,3.542
			C12.347,11.04,10.761,12.625,8.805,12.625z"/>
	</g>
	<g>
		<g>
			<path fill="#A5A5A5" d="M8.965,2.533c-0.052,0-0.092-0.003-0.144-0.001c-0.043-0.001-0.097,0.002-0.14,0.002
				c-4.271,0-7.73,3.507-7.73,7.731s7.875,20.639,7.875,20.639s7.871-16.429,7.871-20.64C16.696,6.054,13.234,2.533,8.965,2.533z
				 M8.805,13.125c-1.956,0-3.542-1.585-3.542-3.54c0-1.956,1.586-3.542,3.542-3.542s3.542,1.586,3.542,3.542
				C12.347,11.54,10.761,13.125,8.805,13.125z"/>
		</g>
	</g>
</g>
<g>
	
		<image overflow="visible" opacity="0.5" enable-background="new    " width="24" height="37" xlink:href="F1BDF8E0.png"  transform="matrix(0.9687 0 0 0.9687 16.2 -1.2229)">
	</image>
	<g>
		<g>
			
				<linearGradient id="SVGID_1_" gradientUnits="userSpaceOnUse" x1="22.3796" y1="816.1121" x2="35.2146" y2="838.3429" gradientTransform="matrix(1 0 0 1 0.2803 -812)">
				<stop  offset="0" style="stop-color:#F4F4C9"/>
				<stop  offset="0.4" style="stop-color:#ECEC82"/>
				<stop  offset="0.42" style="stop-color:#ECEC3B"/>
				<stop  offset="0.46" style="stop-color:#E3D600"/>
				<stop  offset="0.8221" style="stop-color:#F7F73E"/>
				<stop  offset="1" style="stop-color:#F7F73E"/>
			</linearGradient>
			<path fill="url(#SVGID_1_)" d="M27.772,2.512c-0.052,0-0.092-0.004-0.145-0.002c-0.044-0.001-0.098,0.003-0.141,0.003
				c-4.271,0-7.73,3.507-7.73,7.73c0,4.225,7.875,20.639,7.875,20.639s7.871-16.429,7.871-20.64
				C35.502,6.033,32.04,2.512,27.772,2.512z M27.612,13.104c-1.956,0-3.542-1.585-3.542-3.54c0-1.956,1.586-3.542,3.542-3.542
				s3.542,1.586,3.542,3.542S29.568,13.104,27.612,13.104z"/>
		</g>
	</g>
</g>
<g>
	<g>
		<path d="M49.249,24.074c0.848-0.365,3.177-1.443,5.217-2.136c0.792-0.271,1.383-0.478,1.83-0.646
			c-0.35-0.137-0.624-0.244-0.761-0.301c-0.67-0.273-1.183-0.719-1.435-0.991c-0.252-0.273-0.413-0.413-0.475-0.564
			c-0.062-0.152,0.046-0.197-0.029-0.261c-0.077-0.061-0.352,0.048-0.442-0.061s-0.107-0.383-0.092-0.626
			c0.214-0.138,0.55-0.336,0.655-1.022C53.825,16.778,53.902,16,53.902,16s0.549,0.153,0.73-0.549
			c0.185-0.702,0.337-1.815,0.366-2.167c0.031-0.352,0.062-0.504-0.167-0.564c0.045-0.596,0.199-1.693,0.184-2.687
			c-0.017-0.992,0-1.236-0.139-1.573c-0.134-0.337-0.821-1.542-1.021-1.756c-0.197-0.213-0.306-0.305-0.84-0.61
			c-0.533-0.306-1.848-0.626-2.151-0.718c-0.307-0.091-0.504-0.198-1.007-0.183c-0.505,0.015-1.253,0.198-1.786,0.504
			c-0.535,0.305-0.749,0.473-0.765,0.793H46.62c-0.185,0-0.382,0.274-0.595,0.87C45.81,7.955,45.46,8.627,45.444,9.1
			c-0.015,0.474,0.229,1.403,0.261,2.016c0.03,0.609,0.091,0.931,0.185,1.16c0.091,0.229,0.075,0.335-0.017,0.351
			c-0.091,0.018-0.273-0.016-0.244,0.443c0.031,0.458,0.321,2.198,0.412,2.442c0.092,0.242,0.275,0.473,0.488,0.456
			c0.214-0.015,0.198,0.062,0.274,0.367c0.075,0.306,0.152,0.794,0.184,1.19c0.03,0.396,0.396,0.823,0.671,0.916
			c0.046,0.229,0.061,0.503,0.061,0.503s-0.305,0.106-0.457,0.106s-0.306,0.062-0.442,0.352c-0.138,0.29-0.291,0.825-0.521,1.054
			c-0.228,0.229-0.809,0.458-2.427,1.008c-1.618,0.552-3.464,1.404-4.137,1.694c-0.672,0.29-0.946,0.824-1.068,1.037
			c-0.122,0.214-0.168,0.26-0.168,0.442c0,0.184-0.121,3.1-0.121,3.1h9.244c0.035-0.865,0.066-1.689,0.066-1.796
			c0-0.231,0.059-0.289,0.212-0.561C48.056,25.114,48.403,24.44,49.249,24.074z M86.912,24.746
			c-0.062-0.824-0.308-1.101-1.188-1.558c-0.888-0.457-4.731-1.922-5.403-2.197c-0.673-0.273-1.186-0.719-1.438-0.991
			c-0.252-0.273-0.411-0.413-0.473-0.564c-0.062-0.152,0.047-0.197-0.031-0.261c-0.075-0.061-0.35,0.048-0.44-0.061
			c-0.094-0.107-0.106-0.383-0.094-0.626c0.215-0.138,0.551-0.336,0.657-1.022C78.607,16.778,78.684,16,78.684,16
			s0.552,0.153,0.733-0.549c0.183-0.702,0.334-1.815,0.365-2.167c0.03-0.352,0.062-0.504-0.168-0.564
			c0.047-0.596,0.198-1.693,0.184-2.687c-0.014-0.993,0-1.236-0.137-1.573c-0.14-0.336-0.824-1.542-1.022-1.755
			c-0.199-0.213-0.306-0.305-0.841-0.61c-0.532-0.306-1.846-0.626-2.151-0.718c-0.306-0.091-0.504-0.199-1.008-0.183
			c-0.502,0.015-1.252,0.198-1.785,0.504c-0.534,0.305-0.748,0.473-0.763,0.793h-0.688c-0.183,0-0.382,0.274-0.595,0.87
			c-0.213,0.595-0.563,1.267-0.58,1.739c-0.017,0.474,0.229,1.403,0.261,2.016c0.03,0.609,0.092,0.931,0.182,1.16
			c0.095,0.229,0.078,0.335-0.014,0.351c-0.093,0.018-0.275-0.016-0.244,0.443c0.029,0.458,0.32,2.198,0.412,2.442
			c0.09,0.242,0.272,0.473,0.487,0.456c0.214-0.015,0.196,0.062,0.272,0.367c0.078,0.306,0.154,0.794,0.185,1.19
			c0.03,0.396,0.396,0.823,0.673,0.916c0.045,0.229,0.061,0.503,0.061,0.503s-0.305,0.106-0.457,0.106
			c-0.151,0-0.305,0.062-0.44,0.352c-0.14,0.29-0.291,0.825-0.521,1.054c-0.207,0.205-0.703,0.414-1.975,0.854
			c0.021,0.01,0.041,0.021,0.062,0.03c0.847,0.347,5.697,2.194,6.814,2.771c1.114,0.578,1.424,0.924,1.5,1.964
			c0.028,0.392,0.047,1.024,0.059,1.661h9.427C86.973,27.738,86.973,25.57,86.912,24.746z M75.344,24.541
			c-1.062-0.551-5.683-2.31-6.488-2.64c-0.807-0.33-1.42-0.861-1.724-1.19c-0.303-0.33-0.493-0.495-0.564-0.679
			c-0.074-0.184,0.055-0.238-0.039-0.312c-0.091-0.071-0.42,0.057-0.531-0.071c-0.108-0.129-0.127-0.459-0.108-0.752
			c0.258-0.166,0.659-0.403,0.789-1.229c0.127-0.824,0.219-1.759,0.219-1.759s0.66,0.183,0.88-0.66
			c0.221-0.843,0.403-2.183,0.439-2.603c0.035-0.422,0.072-0.605-0.202-0.679c0.058-0.715,0.237-2.034,0.222-3.226
			c-0.02-1.191,0-1.485-0.164-1.888c-0.166-0.403-0.99-1.852-1.229-2.107c-0.237-0.256-0.366-0.366-1.008-0.732
			c-0.644-0.366-2.218-0.751-2.585-0.861s-0.604-0.238-1.209-0.22c-0.605,0.019-1.504,0.239-2.146,0.605s-0.897,0.568-0.917,0.953
			h-0.823c-0.221,0-0.458,0.329-0.715,1.044s-0.678,1.522-0.696,2.09c-0.02,0.568,0.274,1.687,0.312,2.419
			c0.035,0.733,0.109,1.118,0.219,1.395c0.109,0.272,0.093,0.401-0.019,0.421c-0.11,0.019-0.33-0.02-0.293,0.532
			c0.037,0.55,0.386,2.639,0.495,2.933c0.109,0.293,0.33,0.567,0.586,0.549c0.257-0.019,0.238,0.074,0.33,0.44
			c0.092,0.367,0.184,0.953,0.221,1.43c0.036,0.477,0.478,0.988,0.807,1.1c0.055,0.275,0.073,0.605,0.073,0.605
			s-0.366,0.128-0.551,0.128c-0.183,0-0.365,0.073-0.53,0.421c-0.165,0.351-0.349,0.99-0.623,1.267
			c-0.274,0.273-0.973,0.549-2.915,1.209c-1.941,0.659-4.159,1.688-4.966,2.033c-0.808,0.35-1.137,0.989-1.283,1.246
			s-0.2,0.312-0.2,0.531s-0.147,3.721-0.147,3.721h28.59c0,0,0-2.603-0.071-3.593C76.7,25.42,76.407,25.091,75.344,24.541z"/>
	</g>
	<g>
		<g>
			<path fill="#A5A5A5" d="M49.249,24.574c0.848-0.365,3.177-1.443,5.217-2.136c0.792-0.271,1.383-0.478,1.83-0.646
				c-0.35-0.137-0.624-0.244-0.761-0.301c-0.671-0.273-1.184-0.719-1.436-0.991c-0.252-0.273-0.413-0.413-0.475-0.564
				c-0.062-0.152,0.046-0.197-0.029-0.261c-0.077-0.061-0.352,0.048-0.442-0.061s-0.107-0.383-0.092-0.626
				c0.214-0.138,0.55-0.336,0.655-1.022c0.107-0.688,0.185-1.466,0.185-1.466s0.549,0.153,0.73-0.549
				c0.185-0.702,0.336-1.815,0.366-2.167c0.031-0.352,0.062-0.504-0.167-0.564c0.045-0.596,0.199-1.693,0.184-2.687
				c-0.017-0.992,0-1.236-0.139-1.573c-0.134-0.337-0.821-1.542-1.021-1.756c-0.197-0.213-0.306-0.305-0.84-0.61
				c-0.533-0.306-1.848-0.626-2.151-0.718c-0.307-0.091-0.504-0.198-1.007-0.183c-0.505,0.015-1.253,0.198-1.786,0.504
				c-0.535,0.305-0.749,0.473-0.765,0.793h-0.688c-0.185,0-0.382,0.274-0.595,0.87c-0.215,0.595-0.565,1.267-0.581,1.74
				c-0.015,0.474,0.229,1.403,0.261,2.016c0.03,0.609,0.091,0.931,0.185,1.16c0.091,0.229,0.075,0.335-0.017,0.351
				c-0.091,0.018-0.273-0.016-0.244,0.443c0.031,0.458,0.321,2.198,0.412,2.442c0.092,0.242,0.275,0.473,0.488,0.456
				c0.214-0.015,0.198,0.062,0.273,0.367c0.076,0.306,0.153,0.794,0.185,1.19c0.03,0.396,0.396,0.823,0.671,0.916
				c0.046,0.229,0.061,0.503,0.061,0.503s-0.305,0.106-0.458,0.106c-0.151,0-0.305,0.062-0.441,0.352
				c-0.138,0.29-0.291,0.825-0.521,1.054c-0.228,0.229-0.809,0.458-2.427,1.008c-1.618,0.552-3.464,1.404-4.137,1.694
				c-0.672,0.29-0.946,0.824-1.068,1.037c-0.122,0.214-0.168,0.26-0.168,0.442c0,0.184-0.121,3.1-0.121,3.1h9.244
				c0.035-0.865,0.066-1.689,0.066-1.796c0-0.231,0.059-0.289,0.212-0.561C48.056,25.614,48.403,24.94,49.249,24.574z
				 M86.912,25.246c-0.062-0.824-0.308-1.101-1.188-1.558c-0.888-0.457-4.731-1.922-5.403-2.197
				c-0.673-0.273-1.186-0.719-1.438-0.991c-0.252-0.273-0.411-0.413-0.473-0.564c-0.062-0.152,0.047-0.197-0.031-0.261
				c-0.075-0.061-0.35,0.048-0.44-0.061c-0.094-0.107-0.106-0.383-0.094-0.626c0.215-0.138,0.551-0.336,0.657-1.022
				c0.104-0.688,0.183-1.466,0.183-1.466s0.552,0.153,0.733-0.549c0.183-0.702,0.334-1.815,0.365-2.167
				c0.03-0.352,0.062-0.504-0.168-0.564c0.047-0.596,0.198-1.693,0.184-2.687c-0.014-0.993,0-1.236-0.137-1.573
				c-0.14-0.336-0.824-1.542-1.022-1.755c-0.199-0.213-0.306-0.305-0.841-0.61c-0.532-0.306-1.846-0.626-2.151-0.718
				c-0.306-0.091-0.504-0.199-1.008-0.183c-0.502,0.015-1.252,0.198-1.785,0.504c-0.534,0.305-0.748,0.473-0.763,0.793h-0.688
				c-0.183,0-0.382,0.274-0.595,0.87c-0.213,0.595-0.563,1.267-0.58,1.739c-0.017,0.474,0.229,1.403,0.261,2.016
				c0.03,0.609,0.092,0.931,0.182,1.16c0.095,0.229,0.078,0.335-0.014,0.351c-0.093,0.018-0.275-0.016-0.244,0.443
				c0.029,0.458,0.32,2.198,0.412,2.442c0.09,0.242,0.272,0.473,0.487,0.456c0.214-0.015,0.196,0.062,0.272,0.367
				c0.078,0.306,0.154,0.794,0.185,1.19c0.03,0.396,0.396,0.823,0.673,0.916c0.045,0.229,0.061,0.503,0.061,0.503
				s-0.305,0.106-0.457,0.106c-0.151,0-0.305,0.062-0.44,0.352c-0.14,0.29-0.291,0.825-0.521,1.054
				c-0.207,0.205-0.703,0.414-1.975,0.854c0.021,0.01,0.041,0.021,0.062,0.03c0.847,0.347,5.697,2.194,6.814,2.771
				c1.114,0.578,1.424,0.924,1.5,1.964c0.028,0.392,0.047,1.024,0.059,1.661h9.427C86.973,28.238,86.973,26.07,86.912,25.246z
				 M75.344,25.041c-1.062-0.551-5.683-2.31-6.488-2.64c-0.807-0.33-1.42-0.861-1.724-1.19c-0.303-0.33-0.493-0.495-0.564-0.679
				c-0.074-0.184,0.055-0.238-0.039-0.312c-0.091-0.071-0.42,0.057-0.531-0.071c-0.108-0.129-0.127-0.459-0.108-0.752
				c0.258-0.166,0.659-0.403,0.789-1.229c0.127-0.824,0.219-1.759,0.219-1.759s0.66,0.183,0.88-0.66
				c0.221-0.843,0.403-2.183,0.439-2.603c0.035-0.422,0.072-0.605-0.202-0.679c0.058-0.715,0.237-2.034,0.222-3.226
				c-0.02-1.19,0-1.485-0.164-1.888c-0.166-0.403-0.99-1.852-1.229-2.107c-0.237-0.256-0.366-0.366-1.008-0.732
				c-0.644-0.366-2.218-0.751-2.585-0.861s-0.604-0.238-1.209-0.22c-0.605,0.019-1.504,0.239-2.146,0.605s-0.897,0.568-0.917,0.953
				h-0.823c-0.221,0-0.458,0.329-0.715,1.044s-0.678,1.522-0.696,2.09c-0.02,0.568,0.274,1.687,0.312,2.419
				c0.035,0.733,0.109,1.118,0.219,1.395c0.109,0.272,0.093,0.401-0.019,0.421c-0.11,0.019-0.33-0.02-0.293,0.532
				c0.037,0.55,0.386,2.639,0.495,2.933c0.109,0.293,0.33,0.567,0.586,0.549c0.257-0.019,0.238,0.074,0.33,0.44
				c0.092,0.367,0.184,0.953,0.221,1.43c0.036,0.477,0.478,0.988,0.807,1.1c0.055,0.275,0.073,0.605,0.073,0.605
				s-0.366,0.128-0.551,0.128c-0.183,0-0.365,0.073-0.53,0.421c-0.165,0.351-0.349,0.99-0.623,1.267
				c-0.274,0.273-0.973,0.549-2.915,1.209c-1.941,0.659-4.159,1.688-4.966,2.033c-0.808,0.35-1.137,0.989-1.283,1.246
				s-0.2,0.312-0.2,0.531s-0.147,3.721-0.147,3.721h28.59c0,0,0-2.603-0.071-3.593C76.7,25.92,76.407,25.591,75.344,25.041z"/>
		</g>
	</g>
</g>
<g>
	
		<image overflow="visible" opacity="0.5" enable-background="new    " width="57" height="35" xlink:href="F1BDF8E7.png"  transform="matrix(0.9794 0 0 0.9794 87.0579 0.2107)">
	</image>
	<g>
		<g>
			
				<linearGradient id="SVGID_2_" gradientUnits="userSpaceOnUse" x1="102.6218" y1="816.5574" x2="121.9246" y2="849.9907" gradientTransform="matrix(1 0 0 1 0.2803 -812)">
				<stop  offset="0" style="stop-color:#F4F4C9"/>
				<stop  offset="0.4" style="stop-color:#ECEC82"/>
				<stop  offset="0.42" style="stop-color:#ECEC3B"/>
				<stop  offset="0.46" style="stop-color:#E3D600"/>
				<stop  offset="0.8221" style="stop-color:#F7F73E"/>
				<stop  offset="1" style="stop-color:#F7F73E"/>
			</linearGradient>
			<path fill="url(#SVGID_2_)" d="M101.255,24.64c0.848-0.365,3.178-1.443,5.218-2.137c0.792-0.27,1.382-0.477,1.829-0.646
				c-0.35-0.137-0.623-0.244-0.761-0.301c-0.671-0.273-1.184-0.72-1.436-0.991c-0.252-0.274-0.413-0.413-0.475-0.565
				c-0.062-0.151,0.046-0.196-0.029-0.26c-0.077-0.061-0.352,0.047-0.442-0.061c-0.091-0.108-0.107-0.384-0.092-0.626
				c0.214-0.139,0.55-0.337,0.656-1.022c0.106-0.688,0.184-1.466,0.184-1.466s0.549,0.152,0.731-0.549
				c0.184-0.702,0.336-1.815,0.365-2.167c0.031-0.353,0.062-0.504-0.167-0.564c0.045-0.596,0.199-1.694,0.184-2.687
				c-0.017-0.992,0-1.236-0.139-1.573c-0.134-0.337-0.821-1.542-1.021-1.756c-0.197-0.213-0.305-0.306-0.84-0.61
				c-0.533-0.306-1.848-0.626-2.151-0.718c-0.307-0.091-0.504-0.198-1.007-0.184c-0.505,0.016-1.253,0.198-1.786,0.505
				c-0.535,0.305-0.749,0.473-0.765,0.793h-0.688c-0.185,0-0.382,0.273-0.595,0.869c-0.215,0.596-0.565,1.268-0.581,1.74
				c-0.015,0.475,0.229,1.405,0.261,2.017c0.03,0.608,0.091,0.931,0.185,1.159c0.091,0.229,0.076,0.335-0.017,0.352
				c-0.091,0.017-0.273-0.017-0.244,0.442c0.031,0.458,0.321,2.198,0.412,2.442c0.093,0.243,0.275,0.473,0.488,0.457
				c0.214-0.015,0.198,0.062,0.274,0.367c0.075,0.305,0.152,0.794,0.184,1.189c0.03,0.396,0.396,0.823,0.671,0.916
				c0.046,0.229,0.062,0.503,0.062,0.503s-0.306,0.107-0.458,0.107s-0.306,0.062-0.442,0.351c-0.138,0.29-0.291,0.825-0.52,1.055
				c-0.229,0.229-0.81,0.458-2.428,1.008c-1.618,0.551-3.464,1.404-4.137,1.694c-0.672,0.29-0.946,0.823-1.068,1.037
				s-0.168,0.26-0.168,0.441c0,0.185-0.121,3.101-0.121,3.101h9.244c0.035-0.865,0.066-1.689,0.066-1.797
				c0-0.23,0.059-0.289,0.212-0.56C100.062,25.68,100.408,25.006,101.255,24.64z M138.918,25.312
				c-0.062-0.824-0.308-1.102-1.188-1.559c-0.888-0.457-4.731-1.922-5.403-2.196c-0.673-0.273-1.185-0.72-1.437-0.991
				c-0.252-0.274-0.412-0.413-0.474-0.565c-0.062-0.151,0.047-0.196-0.031-0.26c-0.075-0.061-0.35,0.047-0.44-0.061
				c-0.094-0.107-0.106-0.384-0.094-0.626c0.215-0.139,0.551-0.337,0.657-1.022c0.104-0.688,0.183-1.466,0.183-1.466
				s0.552,0.152,0.733-0.549c0.183-0.702,0.334-1.815,0.365-2.167c0.03-0.353,0.062-0.504-0.168-0.564
				c0.047-0.596,0.198-1.694,0.185-2.687c-0.015-0.993,0-1.236-0.138-1.573c-0.14-0.336-0.823-1.542-1.022-1.755
				s-0.306-0.306-0.84-0.61c-0.533-0.306-1.847-0.626-2.152-0.718c-0.305-0.091-0.504-0.199-1.008-0.184
				c-0.502,0.016-1.252,0.198-1.785,0.505c-0.534,0.305-0.748,0.473-0.762,0.793h-0.688c-0.183,0-0.382,0.273-0.595,0.869
				s-0.563,1.268-0.58,1.74c-0.016,0.474,0.229,1.404,0.261,2.016c0.03,0.608,0.092,0.931,0.183,1.159
				c0.094,0.229,0.077,0.335-0.015,0.352c-0.093,0.017-0.274-0.017-0.244,0.442c0.029,0.458,0.32,2.198,0.412,2.442
				c0.09,0.243,0.272,0.473,0.487,0.457c0.214-0.015,0.197,0.062,0.272,0.367c0.078,0.305,0.154,0.794,0.185,1.189
				c0.031,0.396,0.396,0.823,0.673,0.916c0.045,0.229,0.062,0.503,0.062,0.503s-0.306,0.107-0.457,0.107
				c-0.152,0-0.306,0.062-0.441,0.351c-0.139,0.29-0.291,0.825-0.521,1.055c-0.206,0.205-0.701,0.414-1.976,0.854
				c0.022,0.011,0.042,0.021,0.064,0.031c0.846,0.346,5.696,2.194,6.813,2.771c1.114,0.577,1.424,0.924,1.5,1.964
				c0.028,0.392,0.048,1.023,0.061,1.661h9.425C138.979,28.304,138.979,26.135,138.918,25.312z M127.35,25.106
				c-1.062-0.551-5.683-2.311-6.488-2.641s-1.42-0.86-1.723-1.189c-0.304-0.33-0.494-0.495-0.565-0.679
				c-0.074-0.185,0.055-0.238-0.039-0.312c-0.091-0.072-0.42,0.056-0.531-0.072c-0.108-0.129-0.127-0.459-0.108-0.752
				c0.258-0.166,0.66-0.402,0.789-1.229c0.127-0.824,0.219-1.759,0.219-1.759s0.66,0.183,0.88-0.66
				c0.221-0.844,0.403-2.184,0.44-2.604c0.034-0.422,0.071-0.604-0.203-0.678c0.058-0.715,0.237-2.035,0.222-3.226
				c-0.019-1.191,0-1.485-0.164-1.889c-0.166-0.402-0.99-1.851-1.229-2.106s-0.367-0.366-1.009-0.733
				c-0.644-0.366-2.218-0.751-2.585-0.861c-0.366-0.109-0.604-0.237-1.209-0.22c-0.605,0.02-1.504,0.24-2.146,0.606
				c-0.642,0.365-0.897,0.567-0.917,0.953h-0.823c-0.221,0-0.458,0.328-0.715,1.044c-0.257,0.715-0.678,1.521-0.696,2.09
				c-0.02,0.567,0.274,1.686,0.312,2.419c0.036,0.732,0.109,1.118,0.219,1.394c0.11,0.273,0.093,0.402-0.018,0.421
				c-0.111,0.02-0.33-0.019-0.293,0.532c0.036,0.55,0.385,2.639,0.494,2.934c0.109,0.293,0.33,0.566,0.586,0.549
				c0.258-0.02,0.238,0.074,0.33,0.439c0.093,0.367,0.184,0.953,0.221,1.431c0.037,0.477,0.478,0.987,0.807,1.1
				c0.055,0.275,0.073,0.605,0.073,0.605s-0.366,0.128-0.55,0.128s-0.366,0.072-0.531,0.421c-0.165,0.35-0.348,0.989-0.623,1.266
				c-0.274,0.274-0.972,0.549-2.915,1.209c-1.941,0.66-4.159,1.688-4.966,2.034c-0.808,0.349-1.137,0.989-1.283,1.246
				s-0.2,0.312-0.2,0.531c0,0.219-0.146,3.721-0.146,3.721h28.589c0,0,0-2.604-0.071-3.593
				C128.706,25.985,128.413,25.656,127.35,25.106z"/>
		</g>
	</g>
</g>
<g>
	<g>
		<path fill="#FFFFFF" d="M165.64,2.096c-11.935,0-22.868,12.028-22.868,12.028c-1.276,1.406-1.276,3.705,0,5.109
			c0,0,10.852,11.949,22.868,11.949c12.014,0,22.719-11.936,22.719-11.936c1.269-1.411,1.267-3.728,0-5.14
			C188.358,14.111,177.57,2.096,165.64,2.096z M165.68,25.96c-5.149,0-9.321-4.177-9.321-9.321c0-5.147,4.172-9.321,9.321-9.321
			s9.32,4.174,9.32,9.321C175.001,21.783,170.831,25.96,165.68,25.96z M165.599,12.617c-2.224,0-4.021,1.799-4.021,4.021
			c0,2.216,1.797,4.018,4.021,4.018c2.219,0,4.019-1.802,4.019-4.018C169.619,14.416,167.818,12.617,165.599,12.617z"/>
		<path fill="#FFFFFF" d="M165.64,2.096c-11.935,0-22.868,12.028-22.868,12.028c-1.276,1.406-1.276,3.705,0,5.109
			c0,0,10.852,11.949,22.868,11.949c12.014,0,22.719-11.936,22.719-11.936c1.269-1.411,1.267-3.728,0-5.14
			C188.358,14.111,177.57,2.096,165.64,2.096z M165.68,25.96c-5.149,0-9.321-4.177-9.321-9.321c0-5.147,4.172-9.321,9.321-9.321
			s9.32,4.174,9.32,9.321C175.001,21.783,170.831,25.96,165.68,25.96z M165.599,12.617c-2.224,0-4.021,1.799-4.021,4.021
			c0,2.216,1.797,4.018,4.021,4.018c2.219,0,4.019-1.802,4.019-4.018C169.619,14.416,167.818,12.617,165.599,12.617z"/>
	</g>
	<g>
		<g>
			<g>
				<path fill="#333333" d="M165.64,2.586c-11.935,0-22.868,12.027-22.868,12.027c-1.276,1.404-1.276,3.704,0,5.106
					c0,0,10.852,11.949,22.868,11.949c12.014,0,22.719-11.935,22.719-11.935c1.269-1.414,1.267-3.728,0-5.141
					C188.358,14.6,177.57,2.586,165.64,2.586z M165.68,26.447c-5.149,0-9.321-4.176-9.321-9.321s4.172-9.32,9.321-9.32
					s9.32,4.175,9.32,9.32S170.831,26.447,165.68,26.447z M165.599,13.107c-2.224,0-4.021,1.8-4.021,4.02
					c0,2.218,1.797,4.021,4.021,4.021c2.219,0,4.019-1.805,4.019-4.021C169.619,14.907,167.818,13.107,165.599,13.107z"/>
				<path fill="#333333" d="M165.64,2.586c-11.935,0-22.868,12.027-22.868,12.027c-1.276,1.404-1.276,3.704,0,5.106
					c0,0,10.852,11.949,22.868,11.949c12.014,0,22.719-11.935,22.719-11.935c1.269-1.414,1.267-3.728,0-5.141
					C188.358,14.6,177.57,2.586,165.64,2.586z M165.68,26.447c-5.149,0-9.321-4.176-9.321-9.321s4.172-9.32,9.321-9.32
					s9.32,4.175,9.32,9.32S170.831,26.447,165.68,26.447z M165.599,13.107c-2.224,0-4.021,1.8-4.021,4.02
					c0,2.218,1.797,4.021,4.021,4.021c2.219,0,4.019-1.805,4.019-4.021C169.619,14.907,167.818,13.107,165.599,13.107z"/>
			</g>
		</g>
	</g>
</g>
<g>
	<g opacity="0.5">
		<path d="M200.531,8.034l-7.528-7.529c-0.102-0.102-0.234-0.152-0.369-0.152c-0.134,0-0.269,0.052-0.369,0.152l-0.01,0.01
			c-0.099,0.099-0.152,0.229-0.152,0.369v3.652c0,0.14,0.055,0.272,0.152,0.371l3.497,3.496l-3.497,3.496
			c-0.099,0.098-0.152,0.229-0.152,0.368v3.654c0,0.139,0.055,0.271,0.152,0.369l0.01,0.011c0.098,0.098,0.229,0.151,0.369,0.151
			s0.271-0.056,0.37-0.151l7.528-7.529C200.735,8.567,200.735,8.237,200.531,8.034z"/>
	</g>
	<g>
		<path fill="#D6BBBB" d="M200.531,8.534l-7.528-7.529c-0.102-0.102-0.234-0.152-0.369-0.152c-0.134,0-0.269,0.052-0.369,0.152
			l-0.01,0.01c-0.099,0.099-0.152,0.229-0.152,0.369v3.652c0,0.14,0.055,0.272,0.152,0.371l3.497,3.496l-3.497,3.496
			c-0.099,0.098-0.152,0.229-0.152,0.368v3.654c0,0.139,0.055,0.271,0.152,0.369l0.01,0.011c0.098,0.098,0.229,0.151,0.369,0.151
			s0.271-0.056,0.37-0.151l7.528-7.529C200.735,9.067,200.735,8.737,200.531,8.534z"/>
	</g>
</g>
<g>
	<g>
		<path fill="#FFFFFF" d="M215.031,1.352c-6.433,0-11.647,5.215-11.647,11.647c0,6.434,5.216,11.648,11.647,11.648
			c6.435,0,11.648-5.215,11.648-11.648C226.68,6.567,221.466,1.352,215.031,1.352z M215.832,21.699v-3.729h-1.536v3.735
			c-4.213-0.354-7.583-3.707-7.964-7.912h3.787v-1.537h-3.79c0.359-4.228,3.738-7.604,7.968-7.959v3.781h1.536V4.302
			c4.198,0.385,7.544,3.748,7.902,7.953h-3.727v1.537h3.723C223.352,17.975,220.015,21.315,215.832,21.699z"/>
	</g>
	<g>
		<g>
			<path fill="#7C0C18" d="M215.031,0.352c-6.433,0-11.647,5.215-11.647,11.647c0,6.434,5.216,11.648,11.647,11.648
				c6.435,0,11.648-5.215,11.648-11.648C226.68,5.567,221.466,0.352,215.031,0.352z M215.832,20.699v-3.729h-1.536v3.735
				c-4.213-0.354-7.583-3.707-7.964-7.912h3.787v-1.537h-3.79c0.359-4.228,3.738-7.604,7.968-7.959v3.781h1.536V3.302
				c4.198,0.385,7.544,3.748,7.902,7.953h-3.727v1.537h3.723C223.352,16.975,220.015,20.315,215.832,20.699z"/>
		</g>
	</g>
</g>
<g>
	<g>
		<path fill="#6A1019" d="M255.769,4.6h-5.5c-0.003-0.008-0.006-0.017-0.009-0.025l-0.789-1.576
			c-0.203-0.406-0.741-0.737-1.193-0.737h-10.583c-0.455,0-0.992,0.332-1.194,0.737l-0.79,1.576
			c-0.004,0.008-0.004,0.017-0.009,0.025h-5.757c-0.452,0-0.824,0.371-0.824,0.824v15.657c0,0.454,0.372,0.824,0.824,0.824h25.824
			c0.452,0,0.824-0.37,0.824-0.824V5.424C256.594,4.97,256.221,4.6,255.769,4.6z M242.873,19.532c-3.574,0-6.475-2.898-6.475-6.476
			c0-3.575,2.9-6.474,6.475-6.474c3.575,0,6.476,2.898,6.476,6.474C249.348,16.634,246.448,19.532,242.873,19.532z"/>
		<path fill="#6A1019" d="M242.873,8.873c-2.307,0-4.183,1.877-4.183,4.183c0,2.308,1.876,4.185,4.183,4.185
			c2.309,0,4.185-1.877,4.185-4.185C247.057,10.751,245.181,8.873,242.873,8.873z"/>
	</g>
	<g>
		<g>
			<path fill="#D6BBBB" d="M255.769,5.6h-5.5c-0.003-0.008-0.006-0.017-0.009-0.025l-0.789-1.576
				c-0.203-0.406-0.741-0.737-1.193-0.737h-10.583c-0.455,0-0.992,0.332-1.194,0.737l-0.79,1.576
				c-0.004,0.008-0.004,0.017-0.009,0.025h-5.757c-0.452,0-0.824,0.371-0.824,0.824v15.657c0,0.454,0.372,0.824,0.824,0.824h25.824
				c0.452,0,0.824-0.37,0.824-0.824V6.424C256.594,5.97,256.221,5.6,255.769,5.6z M242.873,20.532c-3.574,0-6.475-2.898-6.475-6.476
				c0-3.575,2.9-6.474,6.475-6.474c3.575,0,6.476,2.898,6.476,6.474C249.348,17.634,246.448,20.532,242.873,20.532z"/>
			<path fill="#D6BBBB" d="M242.873,9.873c-2.307,0-4.183,1.877-4.183,4.183c0,2.308,1.876,4.185,4.183,4.185
				c2.309,0,4.185-1.877,4.185-4.185C247.057,11.751,245.181,9.873,242.873,9.873z"/>
		</g>
	</g>
</g>
</svg>
