<?xml version="1.0" encoding="utf-8"?>
<!-- Generator: Adobe Illustrator 14.0.0, SVG Export Plug-In . SVG Version: 6.00 Build 43363)  -->
<!DOCTYPE svg PUBLIC "-//W3C//DTD SVG 1.1//EN" "http://www.w3.org/Graphics/SVG/1.1/DTD/svg11.dtd">
<svg version="1.1" id="Layer_1" xmlns="http://www.w3.org/2000/svg" xmlns:xlink="http://www.w3.org/1999/xlink" x="0px" y="0px"
	 width="288.245px" height="33.396px" viewBox="0 0 288.245 33.396" enable-background="new 0 0 288.245 33.396"
	 xml:space="preserve">
<g>
	<g>
		<path d="M8.965,2.033c-0.052,0-0.092-0.003-0.145-0.001c-0.043-0.001-0.097,0.002-0.14,0.002c-4.271,0-7.729,3.507-7.729,7.731
			c0,4.224,7.875,20.639,7.875,20.639s7.87-16.429,7.87-20.64C16.696,5.554,13.234,2.033,8.965,2.033z M8.805,12.625
			c-1.956,0-3.542-1.585-3.542-3.54c0-1.956,1.586-3.542,3.542-3.542s3.542,1.586,3.542,3.542
			C12.347,11.04,10.761,12.625,8.805,12.625z"/>
	</g>
	<g>
		<g>
			<path fill="#A5A5A5" d="M8.965,2.533c-0.052,0-0.092-0.003-0.145-0.001c-0.043-0.001-0.097,0.002-0.14,0.002
				c-4.271,0-7.729,3.507-7.729,7.731c0,4.224,7.875,20.639,7.875,20.639s7.87-16.429,7.87-20.64
				C16.696,6.054,13.234,2.533,8.965,2.533z M8.805,13.125c-1.956,0-3.542-1.585-3.542-3.54c0-1.956,1.586-3.542,3.542-3.542
				s3.542,1.586,3.542,3.542C12.347,11.54,10.761,13.125,8.805,13.125z"/>
		</g>
	</g>
</g>
<g>
	
		<image overflow="visible" opacity="0.5" enable-background="new    " width="24" height="37" xlink:href="F1BDF8E0.png"  transform="matrix(0.9687 0 0 0.9687 16.2004 -1.2229)">
	</image>
	<g>
		<g>
			
				<linearGradient id="SVGID_1_" gradientUnits="userSpaceOnUse" x1="22.2395" y1="-782.7708" x2="35.0738" y2="-805.0002" gradientTransform="matrix(1 0 0 -1 0.4204 -778.6587)">
				<stop  offset="0" style="stop-color:#F4F4C9"/>
				<stop  offset="0.4" style="stop-color:#ECEC82"/>
				<stop  offset="0.42" style="stop-color:#ECEC3B"/>
				<stop  offset="0.46" style="stop-color:#E3D600"/>
				<stop  offset="0.8221" style="stop-color:#F7F73E"/>
				<stop  offset="1" style="stop-color:#F7F73E"/>
			</linearGradient>
			<path fill="url(#SVGID_1_)" d="M27.772,2.512c-0.052,0-0.092-0.005-0.145-0.003c-0.044-0.001-0.099,0.004-0.142,0.004
				c-4.271,0-7.729,3.507-7.729,7.729c0,4.225,7.875,20.639,7.875,20.639s7.871-16.429,7.871-20.64
				C35.502,6.033,32.04,2.512,27.772,2.512z M27.612,13.104c-1.956,0-3.542-1.585-3.542-3.54c0-1.956,1.586-3.542,3.542-3.542
				s3.542,1.586,3.542,3.542S29.568,13.104,27.612,13.104z"/>
		</g>
	</g>
</g>
<g>
	<g>
		<path d="M49.249,24.074c0.848-0.365,3.177-1.443,5.217-2.136c0.792-0.271,1.383-0.479,1.83-0.646
			c-0.351-0.137-0.624-0.244-0.761-0.301c-0.67-0.273-1.184-0.719-1.436-0.991s-0.413-0.413-0.475-0.563
			c-0.062-0.152,0.046-0.197-0.029-0.262c-0.077-0.061-0.352,0.049-0.442-0.061c-0.09-0.109-0.106-0.383-0.092-0.626
			c0.214-0.138,0.55-0.336,0.655-1.022C53.825,16.778,53.902,16,53.902,16s0.55,0.153,0.73-0.549
			c0.185-0.702,0.337-1.815,0.366-2.167c0.03-0.352,0.062-0.504-0.167-0.564c0.045-0.596,0.198-1.692,0.184-2.687
			c-0.017-0.992,0-1.236-0.139-1.573c-0.134-0.337-0.821-1.542-1.021-1.756c-0.196-0.213-0.306-0.305-0.84-0.61
			c-0.533-0.306-1.848-0.626-2.151-0.718c-0.307-0.091-0.504-0.198-1.007-0.183c-0.505,0.015-1.253,0.198-1.786,0.504
			c-0.534,0.305-0.749,0.473-0.765,0.793H46.62c-0.186,0-0.383,0.274-0.596,0.87C45.81,7.955,45.46,8.627,45.444,9.1
			c-0.015,0.474,0.229,1.402,0.262,2.016c0.029,0.609,0.091,0.931,0.185,1.16c0.091,0.229,0.075,0.335-0.017,0.351
			c-0.091,0.019-0.273-0.016-0.244,0.443c0.031,0.458,0.321,2.198,0.412,2.442c0.092,0.241,0.274,0.473,0.487,0.455
			c0.215-0.015,0.198,0.062,0.274,0.367c0.075,0.307,0.152,0.794,0.184,1.19c0.03,0.396,0.396,0.823,0.672,0.916
			c0.046,0.229,0.061,0.503,0.061,0.503s-0.305,0.105-0.457,0.105s-0.306,0.062-0.442,0.353c-0.138,0.29-0.291,0.825-0.521,1.054
			c-0.229,0.229-0.809,0.458-2.427,1.008c-1.618,0.553-3.464,1.404-4.138,1.694c-0.672,0.29-0.945,0.824-1.067,1.037
			c-0.122,0.214-0.168,0.26-0.168,0.442c0,0.184-0.121,3.1-0.121,3.1h9.244c0.035-0.865,0.065-1.689,0.065-1.796
			c0-0.231,0.06-0.289,0.212-0.562C48.056,25.114,48.403,24.44,49.249,24.074z M86.912,24.746c-0.062-0.824-0.309-1.101-1.188-1.558
			c-0.888-0.457-4.73-1.922-5.403-2.197c-0.673-0.273-1.186-0.719-1.438-0.991s-0.411-0.413-0.473-0.563
			c-0.062-0.152,0.047-0.197-0.031-0.262c-0.075-0.061-0.351,0.049-0.44-0.061c-0.094-0.107-0.105-0.383-0.094-0.626
			c0.215-0.138,0.551-0.336,0.657-1.022C78.607,16.778,78.684,16,78.684,16s0.552,0.153,0.733-0.549
			c0.183-0.702,0.334-1.815,0.365-2.167c0.029-0.352,0.062-0.504-0.169-0.564c0.048-0.596,0.198-1.692,0.185-2.687
			c-0.014-0.993,0-1.236-0.137-1.573c-0.141-0.336-0.824-1.542-1.022-1.755c-0.199-0.213-0.306-0.305-0.841-0.61
			c-0.532-0.306-1.846-0.626-2.151-0.718c-0.306-0.091-0.504-0.199-1.008-0.183c-0.502,0.015-1.252,0.198-1.785,0.504
			c-0.534,0.305-0.748,0.473-0.763,0.793h-0.688c-0.183,0-0.382,0.274-0.595,0.87c-0.213,0.595-0.562,1.267-0.58,1.739
			c-0.017,0.474,0.229,1.402,0.261,2.016c0.03,0.609,0.093,0.931,0.183,1.16c0.095,0.229,0.078,0.335-0.015,0.351
			c-0.093,0.019-0.274-0.016-0.243,0.443c0.028,0.458,0.319,2.198,0.412,2.442c0.09,0.241,0.271,0.473,0.486,0.455
			c0.214-0.015,0.196,0.062,0.272,0.367c0.078,0.307,0.153,0.794,0.185,1.19c0.03,0.396,0.396,0.823,0.673,0.916
			c0.045,0.229,0.062,0.503,0.062,0.503s-0.306,0.105-0.457,0.105s-0.305,0.062-0.44,0.353c-0.14,0.29-0.291,0.825-0.521,1.054
			c-0.207,0.205-0.703,0.414-1.976,0.854c0.021,0.01,0.041,0.021,0.062,0.029c0.847,0.348,5.697,2.194,6.813,2.771
			c1.114,0.578,1.425,0.924,1.5,1.964c0.028,0.392,0.048,1.024,0.06,1.661h9.427C86.973,27.738,86.973,25.57,86.912,24.746z
			 M75.344,24.541c-1.062-0.551-5.683-2.31-6.488-2.64c-0.807-0.33-1.42-0.861-1.724-1.19c-0.303-0.33-0.493-0.495-0.564-0.679
			c-0.073-0.184,0.056-0.238-0.039-0.312c-0.091-0.07-0.42,0.058-0.53-0.07c-0.108-0.129-0.127-0.459-0.108-0.752
			c0.258-0.166,0.659-0.403,0.789-1.229c0.127-0.824,0.219-1.759,0.219-1.759s0.66,0.183,0.88-0.66
			c0.222-0.843,0.403-2.183,0.439-2.603c0.035-0.422,0.072-0.605-0.202-0.68c0.059-0.715,0.237-2.033,0.222-3.226
			c-0.02-1.191,0-1.485-0.163-1.888c-0.166-0.403-0.99-1.853-1.229-2.107c-0.237-0.256-0.366-0.366-1.008-0.731
			c-0.645-0.366-2.218-0.751-2.585-0.861s-0.604-0.238-1.209-0.22c-0.605,0.019-1.504,0.238-2.146,0.604
			c-0.642,0.366-0.896,0.568-0.917,0.953h-0.823c-0.221,0-0.457,0.329-0.715,1.044c-0.257,0.715-0.678,1.522-0.695,2.09
			c-0.021,0.568,0.273,1.688,0.312,2.419c0.035,0.733,0.109,1.118,0.219,1.396c0.109,0.271,0.094,0.4-0.019,0.421
			c-0.11,0.019-0.33-0.021-0.293,0.532c0.037,0.55,0.386,2.639,0.495,2.933c0.108,0.293,0.33,0.567,0.586,0.549
			c0.257-0.019,0.238,0.074,0.33,0.44c0.092,0.367,0.184,0.953,0.221,1.43c0.036,0.478,0.479,0.988,0.807,1.1
			c0.056,0.275,0.073,0.605,0.073,0.605s-0.366,0.128-0.551,0.128c-0.183,0-0.365,0.073-0.53,0.421
			c-0.165,0.352-0.349,0.99-0.623,1.268c-0.273,0.272-0.973,0.549-2.915,1.209c-1.94,0.658-4.158,1.688-4.966,2.032
			c-0.808,0.351-1.137,0.989-1.283,1.246c-0.146,0.257-0.199,0.312-0.199,0.531s-0.147,3.721-0.147,3.721h28.59
			c0,0,0-2.603-0.071-3.593C76.7,25.42,76.407,25.091,75.344,24.541z"/>
	</g>
	<g>
		<g>
			<path fill="#A5A5A5" d="M49.249,24.574c0.848-0.365,3.177-1.443,5.217-2.136c0.792-0.271,1.383-0.479,1.83-0.646
				c-0.351-0.137-0.624-0.244-0.761-0.301c-0.672-0.273-1.185-0.719-1.437-0.991s-0.413-0.413-0.475-0.563
				c-0.062-0.152,0.046-0.197-0.029-0.262c-0.077-0.061-0.352,0.049-0.442-0.061c-0.09-0.109-0.106-0.383-0.092-0.626
				c0.214-0.138,0.55-0.336,0.655-1.022c0.107-0.688,0.185-1.466,0.185-1.466s0.55,0.153,0.73-0.549
				c0.185-0.702,0.336-1.815,0.366-2.167s0.062-0.504-0.167-0.563c0.045-0.597,0.198-1.693,0.184-2.688
				c-0.017-0.992,0-1.236-0.139-1.573c-0.134-0.337-0.821-1.542-1.021-1.756c-0.196-0.213-0.306-0.305-0.84-0.61
				c-0.533-0.306-1.848-0.626-2.151-0.718c-0.307-0.091-0.504-0.198-1.007-0.183c-0.505,0.015-1.253,0.198-1.786,0.504
				c-0.534,0.305-0.749,0.473-0.765,0.793h-0.688c-0.186,0-0.383,0.274-0.596,0.87c-0.215,0.595-0.564,1.267-0.581,1.74
				c-0.015,0.474,0.229,1.402,0.262,2.016c0.029,0.609,0.091,0.931,0.185,1.16c0.091,0.229,0.075,0.335-0.017,0.351
				c-0.092,0.019-0.273-0.016-0.244,0.443c0.031,0.458,0.32,2.198,0.412,2.442c0.092,0.241,0.274,0.473,0.487,0.455
				c0.215-0.015,0.198,0.062,0.273,0.367c0.076,0.307,0.153,0.794,0.185,1.19c0.03,0.396,0.396,0.823,0.671,0.916
				c0.047,0.229,0.062,0.503,0.062,0.503s-0.305,0.105-0.458,0.105c-0.151,0-0.305,0.062-0.441,0.353
				c-0.138,0.29-0.291,0.825-0.521,1.054c-0.229,0.229-0.81,0.458-2.427,1.008c-1.618,0.553-3.465,1.404-4.138,1.694
				c-0.672,0.29-0.945,0.824-1.067,1.037c-0.122,0.214-0.168,0.26-0.168,0.442c0,0.184-0.121,3.1-0.121,3.1h9.244
				c0.034-0.865,0.065-1.689,0.065-1.796c0-0.231,0.06-0.289,0.212-0.562C48.056,25.614,48.403,24.94,49.249,24.574z M86.912,25.246
				c-0.062-0.824-0.309-1.101-1.188-1.558c-0.888-0.457-4.73-1.922-5.403-2.197c-0.673-0.273-1.186-0.719-1.438-0.991
				s-0.411-0.413-0.473-0.563c-0.062-0.152,0.047-0.197-0.031-0.262c-0.075-0.061-0.351,0.049-0.44-0.061
				c-0.094-0.107-0.105-0.383-0.094-0.626c0.215-0.138,0.551-0.336,0.657-1.022c0.104-0.688,0.183-1.466,0.183-1.466
				s0.552,0.153,0.733-0.549c0.183-0.702,0.334-1.815,0.365-2.167c0.029-0.352,0.062-0.504-0.168-0.563
				c0.047-0.597,0.197-1.693,0.184-2.688c-0.014-0.993,0-1.236-0.137-1.573c-0.141-0.336-0.824-1.542-1.022-1.755
				c-0.199-0.213-0.306-0.305-0.841-0.609c-0.532-0.307-1.846-0.627-2.151-0.719c-0.306-0.091-0.504-0.199-1.008-0.183
				c-0.502,0.015-1.252,0.198-1.785,0.504c-0.534,0.305-0.748,0.473-0.763,0.793h-0.688c-0.183,0-0.382,0.274-0.595,0.87
				c-0.213,0.595-0.562,1.267-0.58,1.739c-0.017,0.474,0.229,1.402,0.261,2.016c0.03,0.609,0.093,0.931,0.183,1.16
				c0.095,0.229,0.078,0.335-0.014,0.351c-0.094,0.019-0.275-0.016-0.244,0.443c0.028,0.458,0.319,2.198,0.412,2.442
				c0.09,0.241,0.271,0.473,0.486,0.455c0.214-0.015,0.196,0.062,0.272,0.367c0.078,0.307,0.153,0.794,0.185,1.19
				c0.03,0.396,0.396,0.823,0.673,0.916c0.045,0.229,0.062,0.503,0.062,0.503s-0.306,0.105-0.457,0.105s-0.305,0.062-0.44,0.353
				c-0.14,0.29-0.291,0.825-0.521,1.054c-0.207,0.205-0.703,0.414-1.976,0.854c0.021,0.01,0.041,0.021,0.062,0.029
				c0.847,0.348,5.697,2.194,6.813,2.771c1.114,0.578,1.425,0.924,1.5,1.964c0.028,0.392,0.048,1.024,0.06,1.661h9.427
				C86.973,28.238,86.973,26.07,86.912,25.246z M75.344,25.041c-1.062-0.551-5.683-2.31-6.488-2.64
				c-0.807-0.33-1.42-0.861-1.724-1.19c-0.303-0.33-0.493-0.495-0.564-0.679c-0.073-0.184,0.056-0.238-0.039-0.312
				c-0.091-0.07-0.42,0.058-0.53-0.07c-0.108-0.129-0.127-0.459-0.108-0.752c0.258-0.166,0.659-0.403,0.789-1.229
				c0.127-0.824,0.219-1.759,0.219-1.759s0.66,0.183,0.88-0.66c0.222-0.843,0.403-2.183,0.439-2.603
				c0.035-0.422,0.072-0.605-0.202-0.68c0.059-0.715,0.237-2.033,0.222-3.226c-0.02-1.19,0-1.485-0.163-1.888
				c-0.166-0.403-0.99-1.853-1.229-2.107c-0.237-0.256-0.366-0.366-1.008-0.731c-0.645-0.366-2.218-0.751-2.585-0.861
				s-0.604-0.238-1.209-0.22c-0.605,0.019-1.504,0.238-2.146,0.604c-0.642,0.366-0.896,0.568-0.917,0.953h-0.823
				c-0.221,0-0.457,0.329-0.715,1.044c-0.257,0.715-0.678,1.522-0.695,2.09c-0.021,0.568,0.273,1.688,0.312,2.419
				c0.035,0.733,0.109,1.118,0.219,1.396c0.109,0.271,0.094,0.4-0.019,0.421c-0.11,0.019-0.33-0.021-0.293,0.532
				c0.037,0.55,0.386,2.639,0.495,2.933c0.108,0.293,0.33,0.567,0.586,0.549c0.257-0.019,0.238,0.074,0.33,0.44
				c0.092,0.367,0.184,0.953,0.221,1.43c0.036,0.478,0.479,0.988,0.807,1.1c0.056,0.275,0.073,0.605,0.073,0.605
				s-0.366,0.128-0.551,0.128c-0.183,0-0.365,0.073-0.53,0.421c-0.165,0.352-0.349,0.99-0.623,1.268
				c-0.273,0.272-0.973,0.549-2.915,1.209c-1.94,0.658-4.158,1.688-4.966,2.032c-0.808,0.351-1.137,0.989-1.283,1.246
				c-0.146,0.257-0.199,0.312-0.199,0.531s-0.147,3.721-0.147,3.721h28.59c0,0,0-2.603-0.071-3.593
				C76.7,25.92,76.407,25.591,75.344,25.041z"/>
		</g>
	</g>
</g>
<g>
	
		<image overflow="visible" opacity="0.5" enable-background="new    " width="57" height="35" xlink:href="F1BDF8E7.png"  transform="matrix(0.9794 0 0 0.9794 87.0583 0.2107)">
	</image>
	<g>
		<g>
			
				<linearGradient id="SVGID_2_" gradientUnits="userSpaceOnUse" x1="102.4807" y1="-783.2136" x2="121.7841" y2="-816.6479" gradientTransform="matrix(1 0 0 -1 0.4204 -778.6587)">
				<stop  offset="0" style="stop-color:#F4F4C9"/>
				<stop  offset="0.4" style="stop-color:#ECEC82"/>
				<stop  offset="0.42" style="stop-color:#ECEC3B"/>
				<stop  offset="0.46" style="stop-color:#E3D600"/>
				<stop  offset="0.8221" style="stop-color:#F7F73E"/>
				<stop  offset="1" style="stop-color:#F7F73E"/>
			</linearGradient>
			<path fill="url(#SVGID_2_)" d="M101.255,24.64c0.848-0.365,3.178-1.443,5.218-2.138c0.792-0.27,1.382-0.477,1.829-0.646
				c-0.35-0.138-0.623-0.244-0.761-0.301c-0.671-0.273-1.185-0.721-1.437-0.991c-0.252-0.274-0.413-0.413-0.475-0.565
				c-0.062-0.15,0.046-0.195-0.029-0.26c-0.077-0.061-0.352,0.047-0.441-0.061c-0.092-0.108-0.107-0.385-0.093-0.627
				c0.214-0.139,0.551-0.337,0.656-1.021c0.106-0.688,0.185-1.466,0.185-1.466s0.549,0.151,0.73-0.549
				c0.184-0.702,0.336-1.815,0.365-2.167c0.031-0.354,0.062-0.505-0.167-0.564c0.045-0.596,0.199-1.694,0.184-2.687
				c-0.017-0.992,0-1.236-0.139-1.573c-0.134-0.337-0.821-1.542-1.021-1.756c-0.196-0.213-0.305-0.307-0.84-0.61
				c-0.533-0.306-1.848-0.626-2.15-0.718c-0.308-0.091-0.504-0.198-1.008-0.185c-0.505,0.017-1.253,0.198-1.785,0.506
				c-0.535,0.305-0.749,0.473-0.766,0.793h-0.688c-0.186,0-0.382,0.272-0.596,0.868c-0.215,0.597-0.564,1.269-0.581,1.74
				c-0.015,0.476,0.229,1.405,0.262,2.018c0.029,0.607,0.091,0.931,0.185,1.158c0.091,0.229,0.076,0.335-0.017,0.353
				c-0.091,0.017-0.273-0.018-0.244,0.441c0.031,0.458,0.321,2.198,0.412,2.442c0.093,0.243,0.274,0.473,0.488,0.457
				c0.214-0.015,0.197,0.062,0.273,0.367c0.075,0.305,0.152,0.794,0.185,1.188c0.029,0.396,0.396,0.823,0.671,0.916
				c0.046,0.229,0.062,0.503,0.062,0.503s-0.306,0.107-0.458,0.107s-0.306,0.062-0.442,0.351c-0.138,0.29-0.29,0.825-0.52,1.056
				c-0.229,0.229-0.81,0.458-2.428,1.008c-1.618,0.551-3.464,1.404-4.138,1.694c-0.672,0.29-0.945,0.822-1.067,1.036
				c-0.122,0.215-0.168,0.261-0.168,0.441c0,0.185-0.121,3.101-0.121,3.101h9.244c0.035-0.864,0.065-1.688,0.065-1.797
				c0-0.229,0.06-0.289,0.212-0.56C100.062,25.68,100.408,25.006,101.255,24.64z M138.918,25.312
				c-0.062-0.824-0.309-1.103-1.188-1.56c-0.888-0.457-4.73-1.922-5.402-2.195c-0.674-0.273-1.186-0.721-1.438-0.991
				c-0.252-0.274-0.412-0.413-0.474-0.565c-0.062-0.15,0.047-0.195-0.031-0.26c-0.075-0.061-0.35,0.047-0.44-0.061
				c-0.094-0.107-0.105-0.385-0.094-0.626c0.215-0.14,0.551-0.338,0.657-1.022c0.104-0.688,0.183-1.466,0.183-1.466
				s0.553,0.151,0.733-0.549c0.183-0.702,0.334-1.815,0.365-2.167c0.029-0.354,0.062-0.504-0.168-0.564
				c0.047-0.596,0.197-1.694,0.185-2.687c-0.015-0.993,0-1.236-0.138-1.573c-0.141-0.336-0.823-1.542-1.022-1.755
				s-0.306-0.307-0.84-0.61c-0.533-0.306-1.847-0.626-2.152-0.718c-0.305-0.091-0.504-0.199-1.008-0.185
				c-0.502,0.017-1.252,0.198-1.785,0.506c-0.533,0.305-0.748,0.473-0.762,0.793h-0.688c-0.184,0-0.383,0.272-0.596,0.868
				c-0.213,0.597-0.562,1.269-0.58,1.74c-0.016,0.475,0.229,1.404,0.262,2.017c0.029,0.607,0.092,0.931,0.183,1.158
				c0.094,0.229,0.077,0.335-0.015,0.353c-0.094,0.017-0.274-0.018-0.244,0.441c0.029,0.458,0.32,2.198,0.412,2.442
				c0.09,0.243,0.271,0.473,0.486,0.457c0.215-0.015,0.197,0.062,0.272,0.367c0.078,0.305,0.154,0.794,0.185,1.188
				c0.031,0.396,0.396,0.823,0.674,0.916c0.045,0.229,0.062,0.503,0.062,0.503s-0.306,0.107-0.457,0.107
				c-0.152,0-0.306,0.062-0.441,0.351c-0.139,0.29-0.291,0.825-0.521,1.056c-0.206,0.205-0.701,0.414-1.976,0.854
				c0.021,0.012,0.042,0.021,0.063,0.031c0.846,0.346,5.696,2.194,6.813,2.771c1.113,0.577,1.424,0.925,1.5,1.965
				c0.027,0.392,0.048,1.022,0.061,1.66h9.425C138.979,28.304,138.979,26.135,138.918,25.312z M127.35,25.106
				c-1.062-0.551-5.683-2.312-6.488-2.642c-0.805-0.33-1.42-0.859-1.723-1.188c-0.304-0.33-0.494-0.495-0.564-0.679
				c-0.074-0.186,0.055-0.238-0.039-0.312c-0.092-0.072-0.42,0.056-0.531-0.072c-0.108-0.129-0.127-0.459-0.108-0.752
				c0.258-0.166,0.66-0.401,0.789-1.229c0.127-0.824,0.219-1.759,0.219-1.759s0.66,0.183,0.881-0.66
				c0.221-0.845,0.402-2.185,0.439-2.604c0.034-0.422,0.071-0.604-0.203-0.678c0.059-0.715,0.237-2.035,0.223-3.226
				c-0.02-1.191,0-1.485-0.164-1.89c-0.166-0.401-0.99-1.851-1.229-2.105s-0.367-0.366-1.009-0.733
				c-0.645-0.366-2.218-0.751-2.585-0.861c-0.366-0.108-0.604-0.236-1.209-0.22c-0.605,0.021-1.504,0.24-2.146,0.606
				c-0.642,0.364-0.896,0.566-0.917,0.953h-0.822c-0.222,0-0.458,0.327-0.716,1.044c-0.257,0.715-0.678,1.521-0.695,2.09
				c-0.021,0.566,0.273,1.686,0.312,2.419c0.036,0.731,0.109,1.118,0.22,1.394c0.109,0.273,0.093,0.402-0.019,0.421
				c-0.111,0.021-0.33-0.019-0.293,0.532c0.036,0.55,0.385,2.639,0.494,2.935c0.109,0.293,0.33,0.565,0.586,0.549
				c0.258-0.021,0.238,0.074,0.33,0.438c0.093,0.367,0.184,0.953,0.221,1.432c0.037,0.477,0.479,0.986,0.808,1.1
				c0.055,0.275,0.072,0.605,0.072,0.605s-0.365,0.128-0.55,0.128c-0.184,0-0.366,0.071-0.531,0.421s-0.348,0.988-0.623,1.266
				c-0.273,0.274-0.972,0.549-2.915,1.209c-1.94,0.66-4.158,1.688-4.966,2.034c-0.808,0.349-1.137,0.989-1.283,1.246
				c-0.146,0.257-0.199,0.312-0.199,0.531c0,0.219-0.146,3.721-0.146,3.721h28.589c0,0,0-2.604-0.07-3.593
				C128.706,25.985,128.413,25.656,127.35,25.106z"/>
		</g>
	</g>
</g>
<g>
	<g>
		<path fill="#FFFFFF" d="M165.64,2.096c-11.935,0-22.868,12.027-22.868,12.027c-1.275,1.406-1.275,3.705,0,5.109
			c0,0,10.853,11.949,22.868,11.949c12.014,0,22.719-11.937,22.719-11.937c1.27-1.411,1.268-3.728,0-5.14
			C188.358,14.111,177.57,2.096,165.64,2.096z M165.68,25.96c-5.149,0-9.321-4.177-9.321-9.32c0-5.147,4.172-9.321,9.321-9.321
			s9.32,4.174,9.32,9.321C175.001,21.783,170.831,25.96,165.68,25.96z M165.599,12.617c-2.224,0-4.021,1.799-4.021,4.021
			c0,2.216,1.797,4.018,4.021,4.018c2.219,0,4.02-1.802,4.02-4.018C169.619,14.416,167.818,12.617,165.599,12.617z"/>
		<path fill="#FFFFFF" d="M165.64,2.096c-11.935,0-22.868,12.027-22.868,12.027c-1.275,1.406-1.275,3.705,0,5.109
			c0,0,10.853,11.949,22.868,11.949c12.014,0,22.719-11.937,22.719-11.937c1.27-1.411,1.268-3.728,0-5.14
			C188.358,14.111,177.57,2.096,165.64,2.096z M165.68,25.96c-5.149,0-9.321-4.177-9.321-9.32c0-5.147,4.172-9.321,9.321-9.321
			s9.32,4.174,9.32,9.321C175.001,21.783,170.831,25.96,165.68,25.96z M165.599,12.617c-2.224,0-4.021,1.799-4.021,4.021
			c0,2.216,1.797,4.018,4.021,4.018c2.219,0,4.02-1.802,4.02-4.018C169.619,14.416,167.818,12.617,165.599,12.617z"/>
	</g>
	<g>
		<g>
			<g>
				<path fill="#333333" d="M165.64,2.586c-11.935,0-22.868,12.027-22.868,12.027c-1.275,1.404-1.275,3.704,0,5.105
					c0,0,10.853,11.949,22.868,11.949c12.014,0,22.719-11.935,22.719-11.935c1.27-1.414,1.268-3.729,0-5.142
					C188.358,14.6,177.57,2.586,165.64,2.586z M165.68,26.447c-5.149,0-9.321-4.176-9.321-9.321c0-5.145,4.172-9.319,9.321-9.319
					s9.32,4.175,9.32,9.319C175,22.271,170.831,26.447,165.68,26.447z M165.599,13.107c-2.224,0-4.021,1.8-4.021,4.02
					c0,2.218,1.797,4.021,4.021,4.021c2.219,0,4.02-1.806,4.02-4.021C169.619,14.907,167.818,13.107,165.599,13.107z"/>
				<path fill="#333333" d="M165.64,2.586c-11.935,0-22.868,12.027-22.868,12.027c-1.275,1.404-1.275,3.704,0,5.105
					c0,0,10.853,11.949,22.868,11.949c12.014,0,22.719-11.935,22.719-11.935c1.27-1.414,1.268-3.729,0-5.142
					C188.358,14.6,177.57,2.586,165.64,2.586z M165.68,26.447c-5.149,0-9.321-4.176-9.321-9.321c0-5.145,4.172-9.319,9.321-9.319
					s9.32,4.175,9.32,9.319C175,22.271,170.831,26.447,165.68,26.447z M165.599,13.107c-2.224,0-4.021,1.8-4.021,4.02
					c0,2.218,1.797,4.021,4.021,4.021c2.219,0,4.02-1.806,4.02-4.021C169.619,14.907,167.818,13.107,165.599,13.107z"/>
			</g>
		</g>
	</g>
</g>
<g>
	<g opacity="0.5">
		<path d="M200.531,8.034l-7.528-7.529c-0.103-0.102-0.234-0.151-0.369-0.151c-0.134,0-0.269,0.052-0.369,0.151l-0.01,0.011
			c-0.099,0.099-0.152,0.229-0.152,0.368v3.652c0,0.14,0.056,0.272,0.152,0.371l3.497,3.496l-3.497,3.496
			c-0.099,0.098-0.152,0.229-0.152,0.368v3.653c0,0.14,0.056,0.271,0.152,0.369l0.01,0.011c0.098,0.099,0.229,0.151,0.369,0.151
			s0.271-0.056,0.37-0.151l7.528-7.528C200.735,8.567,200.735,8.237,200.531,8.034z"/>
	</g>
	<g>
		<path fill="#D6BBBB" d="M200.531,8.534l-7.528-7.529c-0.103-0.102-0.234-0.151-0.369-0.151c-0.134,0-0.269,0.052-0.369,0.151
			l-0.01,0.011c-0.099,0.099-0.152,0.229-0.152,0.368v3.652c0,0.14,0.056,0.272,0.152,0.371l3.497,3.496l-3.497,3.496
			c-0.099,0.098-0.152,0.229-0.152,0.368v3.653c0,0.14,0.056,0.271,0.152,0.369l0.01,0.011c0.098,0.099,0.229,0.151,0.369,0.151
			s0.271-0.056,0.37-0.151l7.528-7.528C200.735,9.067,200.735,8.737,200.531,8.534z"/>
	</g>
</g>
<g>
	<g>
		<path fill="#FFFFFF" d="M215.031,1.352c-6.434,0-11.647,5.215-11.647,11.646c0,6.435,5.216,11.648,11.647,11.648
			c6.435,0,11.647-5.215,11.647-11.648C226.68,6.567,221.466,1.352,215.031,1.352z M215.832,21.699v-3.729h-1.536v3.735
			c-4.213-0.354-7.583-3.707-7.964-7.912h3.787v-1.537h-3.79c0.358-4.228,3.737-7.604,7.968-7.959v3.781h1.536V4.302
			c4.198,0.386,7.544,3.748,7.901,7.953h-3.727v1.537h3.723C223.352,17.975,220.015,21.315,215.832,21.699z"/>
	</g>
	<g>
		<g>
			<path fill="#7C0C18" d="M215.031,0.352c-6.434,0-11.647,5.215-11.647,11.646c0,6.435,5.216,11.648,11.647,11.648
				c6.435,0,11.647-5.215,11.647-11.648C226.68,5.567,221.466,0.352,215.031,0.352z M215.832,20.699v-3.729h-1.536v3.735
				c-4.213-0.354-7.583-3.707-7.964-7.912h3.787v-1.537h-3.79c0.358-4.228,3.737-7.604,7.968-7.959v3.781h1.536V3.302
				c4.198,0.386,7.544,3.748,7.901,7.953h-3.727v1.537h3.723C223.352,16.975,220.015,20.315,215.832,20.699z"/>
		</g>
	</g>
</g>
<g>
	<g>
		<path fill="#6A1019" d="M255.769,4.6h-5.5c-0.003-0.009-0.006-0.018-0.009-0.025l-0.789-1.576
			c-0.203-0.406-0.741-0.736-1.193-0.736h-10.583c-0.454,0-0.991,0.331-1.193,0.736l-0.79,1.576
			c-0.004,0.008-0.004,0.017-0.009,0.025h-5.758c-0.451,0-0.823,0.371-0.823,0.823v15.657c0,0.454,0.372,0.824,0.823,0.824h25.824
			c0.452,0,0.824-0.37,0.824-0.824V5.424C256.594,4.969,256.221,4.6,255.769,4.6z M242.873,19.532c-3.574,0-6.476-2.898-6.476-6.476
			c0-3.575,2.9-6.475,6.476-6.475s6.476,2.898,6.476,6.475C249.348,16.634,246.448,19.532,242.873,19.532z"/>
		<path fill="#6A1019" d="M242.873,8.873c-2.308,0-4.184,1.877-4.184,4.184c0,2.308,1.876,4.185,4.184,4.185
			c2.309,0,4.185-1.877,4.185-4.185C247.057,10.751,245.181,8.873,242.873,8.873z"/>
	</g>
	<g>
		<g>
			<path fill="#D6BBBB" d="M255.769,5.6h-5.5c-0.003-0.009-0.006-0.018-0.009-0.025l-0.789-1.576
				c-0.203-0.406-0.741-0.736-1.193-0.736h-10.583c-0.454,0-0.991,0.331-1.193,0.736l-0.79,1.576
				c-0.004,0.008-0.004,0.017-0.009,0.025h-5.758c-0.451,0-0.823,0.371-0.823,0.823v15.657c0,0.454,0.372,0.824,0.823,0.824h25.824
				c0.452,0,0.824-0.37,0.824-0.824V6.424C256.594,5.969,256.221,5.6,255.769,5.6z M242.873,20.532
				c-3.574,0-6.476-2.898-6.476-6.476c0-3.575,2.9-6.475,6.476-6.475s6.476,2.898,6.476,6.475
				C249.348,17.634,246.448,20.532,242.873,20.532z"/>
			<path fill="#D6BBBB" d="M242.873,9.873c-2.308,0-4.184,1.877-4.184,4.184c0,2.308,1.876,4.185,4.184,4.185
				c2.309,0,4.185-1.877,4.185-4.185C247.057,11.751,245.181,9.873,242.873,9.873z"/>
		</g>
	</g>
</g>
<g>
	<g>
		<path fill="#6A1019" d="M268.308,17.276c-0.067,0.027-0.138,0.04-0.206,0.04c-0.212,0-0.411-0.125-0.498-0.332
			c-0.113-0.276,0.019-0.591,0.293-0.704c0.153-0.063,0.311-0.133,0.47-0.208c0.105-0.05,0.221-0.062,0.328-0.042V0.6l-8.617,3.233
			v19.384l8.617-3.229v-2.882C268.565,17.166,268.434,17.224,268.308,17.276z M262.225,9.912l-0.516,0.167
			c-0.054,0.018-0.109,0.027-0.164,0.027c-0.228,0-0.438-0.145-0.513-0.374c-0.091-0.284,0.064-0.587,0.348-0.677l0.508-0.168
			c0.287-0.092,0.589,0.063,0.68,0.344C262.661,9.514,262.507,9.819,262.225,9.912z M264.132,9.372c-0.262,0-0.49-0.192-0.53-0.458
			c-0.046-0.294,0.157-0.569,0.451-0.613c0.2-0.031,0.398-0.052,0.594-0.061c0.301,0.016,0.549,0.219,0.561,0.516
			c0.011,0.297-0.22,0.549-0.516,0.562c-0.157,0.006-0.317,0.023-0.478,0.047C264.187,9.37,264.159,9.372,264.132,9.372z
			 M264.548,14.699c0.058-0.196,0.135-0.391,0.229-0.583c0.129-0.267,0.45-0.38,0.719-0.25c0.268,0.13,0.38,0.452,0.251,0.719
			c-0.067,0.139-0.124,0.278-0.165,0.418c-0.07,0.234-0.285,0.387-0.518,0.387c-0.05,0-0.102-0.007-0.151-0.021
			C264.628,15.284,264.465,14.985,264.548,14.699z M266.53,17.266c-0.07,0.231-0.284,0.382-0.515,0.382
			c-0.052,0-0.104-0.007-0.157-0.024c-0.252-0.075-0.478-0.204-0.67-0.38c-0.221-0.199-0.236-0.541-0.035-0.76
			c0.2-0.22,0.54-0.237,0.762-0.034c0.073,0.066,0.157,0.114,0.258,0.145C266.457,16.681,266.617,16.983,266.53,17.266z
			 M267.16,12.311c-0.089,0.169-0.187,0.338-0.291,0.505c-0.103,0.164-0.278,0.253-0.457,0.253c-0.098,0-0.196-0.027-0.285-0.083
			c-0.252-0.157-0.329-0.49-0.171-0.742c0.089-0.142,0.173-0.284,0.245-0.428c0.139-0.265,0.462-0.369,0.727-0.232
			C267.192,11.721,267.296,12.047,267.16,12.311z M267.076,10.49c-0.069,0.031-0.144,0.045-0.216,0.045
			c-0.207,0-0.403-0.12-0.494-0.322c-0.059-0.132-0.127-0.251-0.205-0.354c-0.18-0.236-0.134-0.575,0.103-0.754
			c0.237-0.179,0.575-0.133,0.755,0.103c0.13,0.169,0.241,0.362,0.334,0.573C267.472,10.052,267.35,10.37,267.076,10.49z"/>
		<path fill="#6A1019" d="M278.36,15.19c-0.104,0-0.211-0.031-0.305-0.095c-0.146-0.1-0.289-0.195-0.433-0.287
			c-0.251-0.16-0.326-0.492-0.165-0.743c0.158-0.25,0.491-0.325,0.743-0.166c0.063,0.04,0.125,0.081,0.188,0.122V3.833L269.771,0.6
			v19.388l8.618,3.229v-8.029C278.379,15.189,278.369,15.19,278.36,15.19z M271.235,15.757l-0.471,0.265
			c-0.084,0.046-0.175,0.069-0.263,0.069c-0.189,0-0.371-0.1-0.472-0.275c-0.146-0.26-0.051-0.588,0.208-0.734l0.467-0.263
			c0.258-0.145,0.587-0.056,0.733,0.204C271.584,15.281,271.493,15.61,271.235,15.757z M273.576,14.528
			c-0.153,0.068-0.312,0.142-0.47,0.22c-0.076,0.038-0.156,0.056-0.236,0.056c-0.2,0-0.39-0.111-0.484-0.301
			c-0.132-0.268-0.021-0.59,0.246-0.72c0.171-0.084,0.339-0.165,0.506-0.239c0.271-0.121,0.59,0.001,0.71,0.272
			C273.97,14.089,273.848,14.406,273.576,14.528z M276.483,13.584c-0.047,0.261-0.274,0.444-0.529,0.444
			c-0.032,0-0.062-0.003-0.096-0.009c-0.115-0.021-0.228-0.031-0.34-0.031c-0.294,0-0.584-0.234-0.588-0.529
			c-0.006-0.295,0.177-0.536,0.471-0.546c0.007,0,0.112-0.002,0.117-0.002c0.174,0,0.35,0.017,0.529,0.048
			C276.34,13.012,276.534,13.291,276.483,13.584z"/>
		<path fill="#6A1019" d="M279.465,3.833v19.384l8.616-3.229V0.6L279.465,3.833z M286.652,13.155
			c0.107,0.277-0.029,0.589-0.306,0.698c-0.064,0.025-0.131,0.037-0.194,0.037c-0.216,0-0.419-0.13-0.504-0.343
			c-0.061-0.159-0.128-0.317-0.198-0.472c-0.121-0.271-0.001-0.591,0.271-0.712c0.271-0.124,0.591-0.001,0.713,0.27
			C286.51,12.804,286.584,12.979,286.652,13.155z M280.959,16.577c-0.106,0.142-0.268,0.218-0.434,0.218
			c-0.111,0-0.224-0.035-0.319-0.105l-0.436-0.326c-0.237-0.179-0.285-0.516-0.106-0.753c0.178-0.236,0.516-0.288,0.754-0.107
			l0.428,0.321C281.085,16.001,281.135,16.337,280.959,16.577z M280.964,6.695c0.116-0.272,0.435-0.398,0.707-0.284l1.979,0.845
			l0.854-1.442c0.151-0.255,0.482-0.341,0.737-0.188c0.255,0.151,0.34,0.482,0.189,0.737l-0.782,1.319l1.354,0.578
			c0.273,0.116,0.401,0.433,0.284,0.706c-0.088,0.204-0.287,0.327-0.495,0.327c-0.072,0-0.144-0.013-0.212-0.042l-1.486-0.633
			l-0.942,1.591c-0.1,0.169-0.279,0.264-0.465,0.264c-0.092,0-0.187-0.024-0.273-0.076c-0.256-0.151-0.34-0.482-0.188-0.738
			l0.87-1.468l-1.849-0.79C280.973,7.285,280.846,6.969,280.964,6.695z M283.306,17.887c-0.088,0.203-0.287,0.324-0.494,0.324
			c-0.071,0-0.146-0.016-0.216-0.046c-0.173-0.076-0.347-0.162-0.521-0.254c-0.263-0.139-0.363-0.466-0.225-0.729
			c0.141-0.261,0.467-0.363,0.729-0.223c0.151,0.08,0.3,0.153,0.449,0.218C283.3,17.298,283.424,17.615,283.306,17.887z
			 M284.287,10.078c0.245-0.17,0.581-0.11,0.751,0.134c0.097,0.141,0.201,0.296,0.31,0.463c0.161,0.25,0.09,0.583-0.158,0.745
			c-0.093,0.059-0.193,0.086-0.292,0.086c-0.178,0-0.351-0.087-0.454-0.247c-0.1-0.156-0.2-0.301-0.289-0.431
			C283.985,10.584,284.043,10.248,284.287,10.078z M285.672,18.146c-0.19,0.116-0.396,0.21-0.607,0.274
			c-0.054,0.017-0.106,0.024-0.158,0.024c-0.23,0-0.443-0.147-0.517-0.378c-0.088-0.284,0.072-0.586,0.355-0.675
			c0.129-0.04,0.253-0.096,0.37-0.167c0.254-0.153,0.588-0.074,0.74,0.182C286.01,17.662,285.928,17.992,285.672,18.146z
			 M287.11,16.058c-0.041,0.268-0.271,0.459-0.531,0.459c-0.027,0-0.056-0.002-0.083-0.006c-0.294-0.044-0.496-0.319-0.452-0.612
			c0.021-0.137,0.031-0.279,0.031-0.424c0-0.298,0.241-0.554,0.538-0.554c0.298,0,0.54,0.224,0.54,0.521
			C287.153,15.674,287.137,15.868,287.11,16.058z"/>
	</g>
	<g>
		<path fill="#D6BBBB" d="M268.308,17.784c-0.067,0.027-0.138,0.04-0.206,0.04c-0.212,0-0.411-0.125-0.498-0.332
			c-0.113-0.276,0.019-0.591,0.293-0.704c0.153-0.062,0.311-0.133,0.47-0.208c0.105-0.05,0.221-0.062,0.328-0.042V1.108
			l-8.617,3.233v19.384l8.617-3.229v-2.882C268.565,17.674,268.434,17.732,268.308,17.784z M262.225,10.42l-0.516,0.167
			c-0.054,0.019-0.109,0.027-0.164,0.027c-0.228,0-0.438-0.145-0.513-0.373c-0.091-0.284,0.064-0.588,0.348-0.678l0.508-0.168
			c0.287-0.092,0.589,0.062,0.68,0.344C262.661,10.022,262.507,10.327,262.225,10.42z M264.132,9.88c-0.262,0-0.49-0.191-0.53-0.457
			c-0.046-0.295,0.157-0.569,0.451-0.613c0.2-0.031,0.398-0.052,0.594-0.061c0.301,0.016,0.549,0.219,0.561,0.516
			c0.011,0.297-0.22,0.549-0.516,0.562c-0.157,0.006-0.317,0.022-0.478,0.047C264.187,9.878,264.159,9.88,264.132,9.88z
			 M264.548,15.208c0.058-0.197,0.135-0.391,0.229-0.584c0.129-0.268,0.45-0.381,0.719-0.25c0.268,0.13,0.38,0.451,0.251,0.719
			c-0.067,0.139-0.124,0.277-0.165,0.418c-0.07,0.234-0.285,0.387-0.518,0.387c-0.05,0-0.102-0.008-0.151-0.021
			C264.628,15.792,264.465,15.493,264.548,15.208z M266.53,17.774c-0.07,0.231-0.284,0.382-0.515,0.382
			c-0.052,0-0.104-0.007-0.157-0.024c-0.252-0.075-0.478-0.204-0.67-0.38c-0.221-0.199-0.236-0.54-0.035-0.761
			c0.2-0.219,0.54-0.236,0.762-0.033c0.073,0.066,0.157,0.113,0.258,0.145C266.457,17.188,266.617,17.491,266.53,17.774z
			 M267.16,12.819c-0.089,0.169-0.187,0.338-0.291,0.506c-0.103,0.163-0.278,0.252-0.457,0.252c-0.098,0-0.196-0.026-0.285-0.082
			c-0.252-0.157-0.329-0.49-0.171-0.742c0.089-0.142,0.173-0.284,0.245-0.428c0.139-0.265,0.462-0.369,0.727-0.232
			C267.192,12.229,267.296,12.554,267.16,12.819z M267.076,10.998c-0.069,0.03-0.144,0.046-0.216,0.046
			c-0.207,0-0.403-0.12-0.494-0.322c-0.059-0.133-0.127-0.252-0.205-0.355c-0.18-0.236-0.134-0.574,0.103-0.754
			c0.237-0.179,0.575-0.133,0.755,0.104c0.13,0.168,0.241,0.361,0.334,0.572C267.472,10.559,267.35,10.878,267.076,10.998z"/>
		<path fill="#D6BBBB" d="M278.36,15.698c-0.104,0-0.211-0.031-0.305-0.096c-0.146-0.1-0.289-0.195-0.433-0.287
			c-0.251-0.159-0.326-0.492-0.165-0.742c0.158-0.25,0.491-0.325,0.743-0.166c0.063,0.039,0.125,0.08,0.188,0.122V4.341
			l-8.618-3.233v19.388l8.618,3.229v-8.029C278.379,15.696,278.369,15.698,278.36,15.698z M271.235,16.264l-0.471,0.266
			c-0.084,0.045-0.175,0.068-0.263,0.068c-0.189,0-0.371-0.1-0.472-0.275c-0.146-0.26-0.051-0.588,0.208-0.734l0.467-0.263
			c0.258-0.146,0.587-0.056,0.733,0.204C271.584,15.789,271.493,16.118,271.235,16.264z M273.576,15.036
			c-0.153,0.068-0.312,0.142-0.47,0.22c-0.076,0.038-0.156,0.056-0.236,0.056c-0.2,0-0.39-0.11-0.484-0.301
			c-0.132-0.268-0.021-0.59,0.246-0.72c0.171-0.085,0.339-0.165,0.506-0.239c0.271-0.12,0.59,0.002,0.71,0.273
			C273.97,14.596,273.848,14.914,273.576,15.036z M276.483,14.092c-0.047,0.261-0.274,0.444-0.529,0.444
			c-0.032,0-0.062-0.004-0.096-0.01c-0.115-0.02-0.228-0.031-0.34-0.031c-0.294,0-0.584-0.233-0.588-0.528
			c-0.006-0.295,0.177-0.536,0.471-0.546c0.007,0,0.112-0.002,0.117-0.002c0.174,0,0.35,0.017,0.529,0.048
			C276.34,13.52,276.534,13.799,276.483,14.092z"/>
		<path fill="#D6BBBB" d="M279.465,4.341v19.384l8.616-3.229V1.108L279.465,4.341z M286.652,13.663
			c0.107,0.276-0.029,0.588-0.306,0.697c-0.064,0.025-0.131,0.037-0.194,0.037c-0.216,0-0.419-0.131-0.504-0.344
			c-0.061-0.158-0.128-0.316-0.198-0.472c-0.121-0.271-0.001-0.591,0.271-0.712c0.271-0.125,0.591-0.002,0.713,0.27
			C286.51,13.312,286.584,13.487,286.652,13.663z M280.959,17.085c-0.106,0.143-0.268,0.219-0.434,0.219
			c-0.111,0-0.224-0.035-0.319-0.105l-0.436-0.326c-0.237-0.18-0.285-0.517-0.106-0.754c0.178-0.236,0.516-0.287,0.754-0.107
			l0.428,0.32C281.085,16.509,281.135,16.844,280.959,17.085z M280.964,7.203c0.116-0.272,0.435-0.398,0.707-0.284l1.979,0.845
			l0.854-1.442c0.151-0.255,0.482-0.341,0.737-0.188c0.255,0.151,0.34,0.482,0.189,0.737l-0.782,1.319l1.354,0.578
			c0.273,0.116,0.401,0.433,0.284,0.706c-0.088,0.204-0.287,0.327-0.495,0.327c-0.072,0-0.144-0.013-0.212-0.042l-1.486-0.634
			l-0.942,1.591c-0.1,0.17-0.279,0.265-0.465,0.265c-0.092,0-0.187-0.024-0.273-0.075c-0.256-0.152-0.34-0.482-0.188-0.738
			l0.87-1.468l-1.849-0.79C280.973,7.793,280.846,7.476,280.964,7.203z M283.306,18.395c-0.088,0.203-0.287,0.324-0.494,0.324
			c-0.071,0-0.146-0.016-0.216-0.046c-0.173-0.076-0.347-0.162-0.521-0.254c-0.263-0.139-0.363-0.466-0.225-0.729
			c0.141-0.261,0.467-0.363,0.729-0.223c0.151,0.08,0.3,0.153,0.449,0.218C283.3,17.805,283.424,18.123,283.306,18.395z
			 M284.287,10.586c0.245-0.17,0.581-0.11,0.751,0.134c0.097,0.141,0.201,0.297,0.31,0.463c0.161,0.251,0.09,0.584-0.158,0.745
			c-0.093,0.059-0.193,0.087-0.292,0.087c-0.178,0-0.351-0.088-0.454-0.247c-0.1-0.155-0.2-0.302-0.289-0.431
			C283.985,11.092,284.043,10.756,284.287,10.586z M285.672,18.654c-0.19,0.116-0.396,0.21-0.607,0.274
			c-0.054,0.017-0.106,0.024-0.158,0.024c-0.23,0-0.443-0.147-0.517-0.378c-0.088-0.284,0.072-0.586,0.355-0.675
			c0.129-0.04,0.253-0.096,0.37-0.167c0.254-0.153,0.588-0.074,0.74,0.182C286.01,18.17,285.928,18.5,285.672,18.654z
			 M287.11,16.566c-0.041,0.268-0.271,0.459-0.531,0.459c-0.027,0-0.056-0.003-0.083-0.007c-0.294-0.044-0.496-0.318-0.452-0.611
			c0.021-0.138,0.031-0.279,0.031-0.424c0-0.299,0.241-0.555,0.538-0.555c0.298,0,0.54,0.224,0.54,0.521
			C287.153,16.181,287.137,16.376,287.11,16.566z"/>
	</g>
</g>
</svg>
